<svg width="61" height="61" viewBox="0 0 61 61" fill="none" xmlns="http://www.w3.org/2000/svg">
<g clip-path="url(#clip0_574_37)">
<path d="M30.5 13.3145H24.6406C24.4075 13.3145 24.184 13.4071 24.0191 13.5719C23.8543 13.7367 23.7617 13.9603 23.7617 14.1934C23.7617 14.4265 23.8543 14.65 24.0191 14.8148C24.184 14.9797 24.4075 15.0723 24.6406 15.0723H30.5C30.7331 15.0723 30.9567 14.9797 31.1215 14.8148C31.2863 14.65 31.3789 14.4265 31.3789 14.1934C31.3789 13.9603 31.2863 13.7367 31.1215 13.5719C30.9567 13.4071 30.7331 13.3145 30.5 13.3145Z" fill="white"/>
<path d="M19.9531 15.0723H21.7109C21.944 15.0723 22.1676 14.9797 22.3324 14.8148C22.4972 14.65 22.5898 14.4265 22.5898 14.1934C22.5898 13.9603 22.4972 13.7367 22.3324 13.5719C22.1676 13.4071 21.944 13.3145 21.7109 13.3145H19.9531C19.72 13.3145 19.4965 13.4071 19.3316 13.5719C19.1668 13.7367 19.0742 13.9603 19.0742 14.1934C19.0742 14.4265 19.1668 14.65 19.3316 14.8148C19.4965 14.9797 19.72 15.0723 19.9531 15.0723Z" fill="white"/>
<path d="M30.5 17.416H19.9531C19.72 17.416 19.4965 17.5086 19.3316 17.6734C19.1668 17.8383 19.0742 18.0618 19.0742 18.2949C19.0742 18.528 19.1668 18.7516 19.3316 18.9164C19.4965 19.0812 19.72 19.1738 19.9531 19.1738H30.5C30.7331 19.1738 30.9567 19.0812 31.1215 18.9164C31.2863 18.7516 31.3789 18.528 31.3789 18.2949C31.3789 18.0618 31.2863 17.8383 31.1215 17.6734C30.9567 17.5086 30.7331 17.416 30.5 17.416Z" fill="white"/>
<path d="M30.5 21.5176H19.9531C19.72 21.5176 19.4965 21.6102 19.3316 21.775C19.1668 21.9398 19.0742 22.1634 19.0742 22.3965C19.0742 22.6296 19.1668 22.8531 19.3316 23.018C19.4965 23.1828 19.72 23.2754 19.9531 23.2754H30.5C30.7331 23.2754 30.9567 23.1828 31.1215 23.018C31.2863 22.8531 31.3789 22.6296 31.3789 22.3965C31.3789 22.1634 31.2863 21.9398 31.1215 21.775C30.9567 21.6102 30.7331 21.5176 30.5 21.5176Z" fill="white"/>
<path d="M40.7246 9.29726L35.293 1.82773C34.9936 1.41703 34.6016 1.08275 34.1487 0.852043C33.6958 0.621339 33.195 0.500725 32.6867 0.5L17.7664 0.5C17.258 0.500821 16.757 0.62147 16.304 0.852158C15.8509 1.08285 15.4587 1.41708 15.159 1.82773L9.72852 9.29844C9.32773 9.84843 9.11227 10.5117 9.11328 11.1922V24.0969C9.11392 24.3765 9.15015 24.6549 9.2211 24.9254L18.0547 58.1059C18.2378 58.792 18.6422 59.3985 19.2052 59.8314C19.7682 60.2642 20.4582 60.4993 21.1684 60.5H29.2848C29.9057 60.501 30.5136 60.3214 31.0344 59.9832C31.23 59.8564 31.3673 59.6571 31.416 59.429C31.4646 59.201 31.4208 58.963 31.2939 58.7674C31.1671 58.5717 30.9678 58.4345 30.7398 58.3858C30.5118 58.3371 30.2738 58.381 30.0781 58.5078C29.8421 58.6614 29.5664 58.7428 29.2848 58.7422H21.1684C20.8456 58.7417 20.5321 58.6348 20.2764 58.4379C20.0206 58.2411 19.837 57.9654 19.7539 57.6535L10.9215 24.4766C10.8881 24.3527 10.8712 24.2251 10.8711 24.0969V11.1922C10.8719 10.8828 10.9699 10.5815 11.1512 10.3309L16.5805 2.86133C16.7169 2.67473 16.8954 2.52287 17.1014 2.41803C17.3074 2.31318 17.5352 2.2583 17.7664 2.25781H32.6867C32.9177 2.2582 33.1454 2.31305 33.3513 2.41791C33.5571 2.52277 33.7353 2.67469 33.8715 2.86133L39.302 10.3297C39.4831 10.5809 39.5811 10.8825 39.582 11.1922V23.9516C39.582 24.1847 39.6746 24.4082 39.8395 24.573C40.0043 24.7379 40.2278 24.8305 40.4609 24.8305C40.694 24.8305 40.9176 24.7379 41.0824 24.573C41.2472 24.4082 41.3398 24.1847 41.3398 23.9516V11.1922C41.3407 10.5113 41.1253 9.84777 40.7246 9.29726Z" fill="white"/>
<path d="M32.2039 5.54961C32.1222 5.43753 32.0152 5.34632 31.8916 5.2834C31.768 5.22048 31.6313 5.18762 31.4926 5.1875H18.9606C18.8219 5.18762 18.6851 5.22048 18.5615 5.2834C18.4379 5.34632 18.3309 5.43753 18.2492 5.54961L13.9684 11.4371C13.8594 11.5874 13.8007 11.7683 13.8008 11.9539V23.7898C13.8006 23.8662 13.8104 23.9422 13.8301 24.016L22.1211 55.1598C22.1711 55.3469 22.2815 55.5123 22.4351 55.6303C22.5887 55.7483 22.777 55.8124 22.9707 55.8125H26.4184C26.6515 55.8125 26.875 55.7199 27.0398 55.5551C27.2047 55.3902 27.2973 55.1667 27.2973 54.9336C27.2973 54.7005 27.2047 54.4769 27.0398 54.3121C26.875 54.1473 26.6515 54.0547 26.4184 54.0547H23.6457L15.5598 23.675V12.2398L19.4082 6.94531H31.0449L34.8945 12.2398V23.675L34.8758 23.7441C34.8461 23.8557 34.8386 23.972 34.8539 24.0865C34.8692 24.2009 34.9068 24.3113 34.9647 24.4111C35.0226 24.511 35.0996 24.5986 35.1913 24.6687C35.283 24.7388 35.3876 24.7902 35.4992 24.8199C35.6108 24.8496 35.7271 24.8571 35.8416 24.8418C35.956 24.8265 36.0663 24.7889 36.1662 24.731C36.2661 24.6731 36.3536 24.5961 36.4238 24.5044C36.4939 24.4127 36.5453 24.3081 36.575 24.1965L36.6231 24.016C36.6427 23.9422 36.6526 23.8662 36.6523 23.7898V11.9539C36.6524 11.7683 36.5937 11.5874 36.4848 11.4371L32.2039 5.54961Z" fill="white"/>
<path d="M51.3289 31.0475L38.4383 25.9908C38.2319 25.91 38.0025 25.91 37.7961 25.9908L24.9055 31.0475C24.7408 31.1123 24.5995 31.2252 24.5 31.3716C24.4005 31.5179 24.3474 31.6908 24.3477 31.8678V40.719C24.3472 44.9773 25.6301 49.1368 28.0291 52.6551C30.4281 56.1733 33.8318 58.8868 37.7961 60.4416C38.0024 60.5229 38.2319 60.5229 38.4383 60.4416C42.4029 58.8867 45.8069 56.1728 48.2059 52.6541C50.6049 49.1354 51.8877 44.9753 51.8867 40.7166V31.8654C51.8865 31.6889 51.8332 31.5165 51.7337 31.3706C51.6343 31.2247 51.4932 31.1121 51.3289 31.0475ZM45.5094 41.4115L38.6328 48.2881C38.1288 48.7915 37.4455 49.0742 36.7332 49.0742C36.0209 49.0742 35.3376 48.7915 34.8336 48.2881L30.725 44.1795C30.5606 44.0144 30.4683 43.7908 30.4683 43.5578C30.4683 43.3248 30.5606 43.1013 30.725 42.9362L33.2809 40.3815C33.3625 40.2998 33.4594 40.235 33.5661 40.1908C33.6727 40.1466 33.7871 40.1238 33.9025 40.1238C34.018 40.1238 34.1323 40.1466 34.239 40.1908C34.3457 40.235 34.4426 40.2998 34.5242 40.3815L36.7332 42.5905L41.7102 37.6135C41.7918 37.5318 41.8887 37.467 41.9954 37.4228C42.102 37.3786 42.2164 37.3559 42.3318 37.3559C42.4473 37.3559 42.5616 37.3786 42.6683 37.4228C42.775 37.467 42.8719 37.5318 42.9535 37.6135L45.5094 40.1682C45.6737 40.3333 45.766 40.5569 45.766 40.7899C45.766 41.0229 45.6737 41.2464 45.5094 41.4115Z" fill="white"/>
<path d="M37.3543 44.4545C37.2728 44.5361 37.176 44.6009 37.0694 44.6451C36.9628 44.6893 36.8486 44.712 36.7332 44.712C36.6178 44.712 36.5036 44.6893 36.397 44.6451C36.2904 44.6009 36.1936 44.5361 36.1121 44.4545L33.8984 42.2455L32.5859 43.5568L36.0734 47.0443C36.2475 47.2184 36.4836 47.3161 36.7297 47.3161C36.9758 47.3161 37.2119 47.2184 37.3859 47.0443L43.6414 40.7889L42.3359 39.4775L37.3543 44.4545Z" fill="white"/>
</g>
<defs>
<clipPath id="clip0_574_37">
<rect width="60" height="60" fill="white" transform="translate(0.5 0.5)"/>
</clipPath>
</defs>
</svg>
