<svg width="45" height="45" viewBox="0 0 45 45" fill="none" xmlns="http://www.w3.org/2000/svg">
<g clip-path="url(#clip0_487_438)">
<path d="M44.9999 20.3028C44.9999 20.1789 44.9649 20.0574 44.899 19.9525C44.8331 19.8475 44.7389 19.7633 44.6272 19.7096L33.0195 14.1048C32.8631 14.0354 32.6858 14.0296 32.5252 14.0886C32.3646 14.1475 32.2332 14.2666 32.1587 14.4207C32.0843 14.5748 32.0727 14.7517 32.1264 14.9142C32.1801 15.0767 32.2949 15.2119 32.4464 15.2913L42.8246 20.3011L22.4998 30.1176L2.17514 20.3028L12.5533 15.293C12.6341 15.2572 12.7068 15.2055 12.7672 15.141C12.8276 15.0765 12.8745 15.0005 12.9049 14.9176C12.9354 14.8346 12.9488 14.7464 12.9445 14.6581C12.9402 14.5698 12.9181 14.4833 12.8797 14.4038C12.8413 14.3242 12.7872 14.2531 12.7208 14.1949C12.6543 14.1366 12.5769 14.0923 12.4929 14.0645C12.409 14.0368 12.3204 14.0262 12.2323 14.0334C12.1442 14.0407 12.0585 14.0655 11.9802 14.1065L0.372505 19.7096C0.260778 19.7633 0.166494 19.8475 0.100507 19.9524C0.0345202 20.0574 -0.000488281 20.1788 -0.000488281 20.3028C-0.000488281 20.4268 0.0345202 20.5482 0.100507 20.6532C0.166494 20.7582 0.260778 20.8423 0.372505 20.8961L6.45981 23.836V30.8497C6.4597 30.976 6.49594 31.0997 6.5642 31.206C6.63246 31.3123 6.72986 31.3967 6.84477 31.4491L22.2256 38.4804C22.3117 38.5197 22.4052 38.5401 22.4998 38.5401C22.5945 38.5401 22.688 38.5197 22.7741 38.4804L38.1549 31.4491C38.2698 31.3967 38.3672 31.3123 38.4355 31.206C38.5038 31.0997 38.54 30.976 38.5399 30.8497V23.836L43.6815 21.3575V30.8497C43.6815 31.0245 43.7509 31.1922 43.8746 31.3158C43.9982 31.4394 44.1658 31.5089 44.3407 31.5089C44.5155 31.5089 44.6832 31.4394 44.8068 31.3158C44.9304 31.1922 44.9999 31.0245 44.9999 30.8497V20.3028ZM22.4998 37.1558L7.77817 30.4261V29.2395L22.2256 35.8436C22.3117 35.883 22.4052 35.9034 22.4998 35.9034C22.5945 35.9034 22.688 35.883 22.7741 35.8436L37.2215 29.2395V30.4261L22.4998 37.1558ZM37.2215 27.7893L22.4998 34.5191L7.77817 27.7893V24.4723L22.2133 31.4429C22.3026 31.4863 22.4006 31.5089 22.4998 31.5089C22.5991 31.5089 22.6971 31.4863 22.7864 31.4429L37.2215 24.4723V27.7893Z" fill="white"/>
<path d="M22.1115 17.6353C22.0503 17.6965 21.9776 17.7451 21.8976 17.7783C21.8176 17.8114 21.7319 17.8285 21.6453 17.8285C21.5587 17.8285 21.4729 17.8114 21.3929 17.7783C21.3129 17.7451 21.2402 17.6965 21.179 17.6353L19.8967 16.3529L19.248 16.9989L21.3223 19.0723C21.408 19.1579 21.5241 19.206 21.6453 19.206C21.7664 19.206 21.8826 19.1579 21.9683 19.0723L25.7476 15.293L25.1016 14.647L22.1115 17.6353Z" fill="white"/>
<path d="M30.3374 9.48524L22.741 6.504C22.5862 6.44333 22.4142 6.44333 22.2594 6.504L14.663 9.48349C14.5395 9.53209 14.4335 9.61679 14.3589 9.72654C14.2842 9.8363 14.2444 9.966 14.2446 10.0987V15.3142C14.2443 17.8522 15.0089 20.3315 16.4385 22.4286C17.8682 24.5257 19.8967 26.1433 22.2594 27.0704C22.4141 27.1313 22.5862 27.1313 22.741 27.0704C25.1033 26.1435 27.1315 24.5263 28.5611 22.4297C29.9908 20.3331 30.7556 17.8544 30.7558 15.3168V10.0996C30.7558 9.96703 30.7159 9.83752 30.6413 9.72794C30.5667 9.61836 30.4608 9.53379 30.3374 9.48524ZM27.1479 15.7554L22.901 20.0022C22.7362 20.1672 22.5405 20.2981 22.325 20.3874C22.1096 20.4768 21.8787 20.5227 21.6455 20.5227C21.4122 20.5227 21.1813 20.4768 20.9659 20.3874C20.7505 20.2981 20.5547 20.1672 20.3899 20.0022L17.8525 17.4648C17.7913 17.4036 17.7427 17.3309 17.7095 17.2509C17.6764 17.1709 17.6593 17.0852 17.6593 16.9986C17.6593 16.912 17.6764 16.8262 17.7095 16.7462C17.7427 16.6662 17.7913 16.5935 17.8525 16.5323L19.4346 14.9547C19.4957 14.8934 19.5683 14.8449 19.6483 14.8117C19.7282 14.7786 19.8139 14.7615 19.9004 14.7615C19.9869 14.7615 20.0726 14.7786 20.1525 14.8117C20.2325 14.8449 20.3051 14.8934 20.3662 14.9547L21.6485 16.237L24.6368 13.2487C24.698 13.1875 24.7706 13.1389 24.8505 13.1058C24.9304 13.0726 25.0161 13.0556 25.1026 13.0556C25.1892 13.0556 25.2748 13.0726 25.3548 13.1058C25.4347 13.1389 25.5073 13.1875 25.5685 13.2487L27.1505 14.8308C27.2117 14.892 27.2603 14.9647 27.2935 15.0447C27.3266 15.1247 27.3437 15.2104 27.3437 15.297C27.3437 15.3836 27.3266 15.4694 27.2935 15.5494C27.2603 15.6294 27.2117 15.7021 27.1505 15.7633L27.1479 15.7554Z" fill="white"/>
</g>
<defs>
<clipPath id="clip0_487_438">
<rect width="45" height="45" fill="white"/>
</clipPath>
</defs>
</svg>
