<svg width="200" height="213" viewBox="0 0 200 213" fill="none" xmlns="http://www.w3.org/2000/svg">
<path d="M104.467 3.48193H3.12646V104.467H104.467V3.48193Z" fill="#EBEEF3"/>
<path d="M72.6851 48.0165C74.0949 47.9534 75.5039 47.8805 76.9156 47.8601C78.0285 47.8441 79.13 47.8788 80.2296 47.9597L94.8137 30.9567V22.2183L72.6851 48.0165Z" fill="white"/>
<path d="M63.8623 48.1991C63.9539 48.2044 64.0454 48.2106 64.137 48.2178C64.9442 48.2782 65.7291 48.248 66.5363 48.2106C67.1425 48.1831 67.7488 48.1644 68.356 48.1493L94.8138 17.3036V12.1147L63.8623 48.1991Z" fill="white"/>
<path d="M72.6499 94.5981C74.0598 94.535 75.4688 94.4621 76.8804 94.4416C77.9934 94.4256 79.0948 94.4603 80.1944 94.5412L94.7777 77.5382V68.7998L72.6499 94.5981Z" fill="white"/>
<path d="M63.8267 94.7802C63.9182 94.7855 64.0098 94.7917 64.1014 94.7988C64.9085 94.8593 65.6935 94.829 66.5006 94.7917C67.1069 94.7641 67.7132 94.7455 68.3203 94.7304L94.7773 63.8846V58.6958L63.8267 94.7802Z" fill="white"/>
<path d="M5.99414 47.4894L41.7665 5.78418C39.2463 5.79929 36.7252 5.8304 34.205 5.86152L5.99414 38.751V47.4894Z" fill="white"/>
<path d="M5.99414 33.836L29.9478 5.90869C28.4571 5.92203 26.9672 5.93092 25.4764 5.93358L5.99414 28.6472V33.836Z" fill="white"/>
<path d="M5.9707 94.3375L41.743 52.6323C39.2228 52.6474 36.7018 52.6785 34.1816 52.7097L5.9707 85.5991V94.3375Z" fill="white"/>
<path d="M5.9707 80.6842L29.9244 52.7568C28.4336 52.7702 26.9438 52.7791 25.453 52.7817L5.9707 75.4953V80.6842Z" fill="white"/>
<path d="M100.54 100.896H0.355581C0.159122 100.896 0 100.737 0 100.54V0.355581C0 0.159122 0.159122 0 0.355581 0H100.54C100.737 0 100.896 0.159122 100.896 0.355581V100.54C100.896 100.737 100.737 100.896 100.54 100.896ZM0.711162 100.185H100.185V0.711162H0.711162V100.185Z" fill="#33184B"/>
<path d="M94.8958 95.2514H6.0006C5.80414 95.2514 5.64502 95.0923 5.64502 94.8958V6.0006C5.64502 5.80414 5.80414 5.64502 6.0006 5.64502H94.8958C95.0923 5.64502 95.2514 5.80414 95.2514 6.0006V94.8958C95.2514 95.0923 95.0923 95.2514 94.8958 95.2514ZM6.35618 94.5402H94.5402V6.35618H6.35618V94.5402Z" fill="#33184B"/>
<path d="M52.7595 95.2514H48.1369C47.9405 95.2514 47.7814 95.0923 47.7814 94.8958V53.1151H6.0006C5.80414 53.1151 5.64502 52.9559 5.64502 52.7595V48.1369C5.64502 47.9405 5.80414 47.7814 6.0006 47.7814H47.7814V6.0006C47.7814 5.80414 47.9405 5.64502 48.1369 5.64502H52.7595C52.9559 5.64502 53.1151 5.80414 53.1151 6.0006V47.7814H94.8958C95.0923 47.7814 95.2514 47.9405 95.2514 48.1369V52.7595C95.2514 52.9559 95.0923 53.1151 94.8958 53.1151H53.1151V94.8958C53.1151 95.0923 52.9559 95.2514 52.7595 95.2514ZM48.4925 94.5402H52.4039V52.7595C52.4039 52.563 52.563 52.4039 52.7595 52.4039H94.5402V48.4925H52.7595C52.563 48.4925 52.4039 48.3334 52.4039 48.1369V6.35618H48.4925V48.1369C48.4925 48.3334 48.3334 48.4925 48.1369 48.4925H6.35618V52.4039H48.1369C48.3334 52.4039 48.4925 52.563 48.4925 52.7595V94.5402Z" fill="#33184B"/>
<path d="M115.41 89.4677L114.462 88.9854L108.903 99.9051L109.85 100.387L115.41 89.4677Z" fill="#33184B"/>
<path d="M115.483 88.8794L114.896 88.5806L114.506 89.3474L115.093 89.6462L115.483 88.8794Z" fill="#33184B"/>
<path d="M113.469 95.1067C113.431 95.1067 113.391 95.0978 113.354 95.0792C113.23 95.0161 113.18 94.8632 113.244 94.7387L115.358 90.5873L114.501 90.1508C114.377 90.0877 114.327 89.9348 114.391 89.8104C114.454 89.6859 114.607 89.6361 114.731 89.6992L115.814 90.2504C115.939 90.3135 115.988 90.4664 115.924 90.5909L113.696 94.9681C113.65 95.0561 113.562 95.1067 113.469 95.1067Z" fill="#33184B"/>
<path d="M158.188 65.938C162.006 64.9185 164.166 60.5872 163.011 56.2639C161.857 51.9406 157.826 49.2624 154.008 50.2819C150.189 51.3014 148.03 55.6327 149.185 59.956C150.339 64.2793 154.37 66.9576 158.188 65.938Z" fill="#7E1030"/>
<path d="M156.535 66.4068C153.156 66.4068 149.947 63.8324 148.929 60.0214C148.355 57.8711 148.556 55.6496 149.493 53.7677C150.438 51.8751 152.013 50.5505 153.931 50.0385C155.849 49.5265 157.875 49.8892 159.637 51.0599C161.389 52.2236 162.67 54.0495 163.245 56.1998C163.819 58.3502 163.618 60.5717 162.68 62.4536C161.736 64.3462 160.161 65.6707 158.243 66.1828C157.674 66.3339 157.102 66.4068 156.535 66.4068ZM155.651 50.3185C155.118 50.3185 154.585 50.3879 154.062 50.5274C152.287 51.0012 150.825 52.2324 149.947 53.9935C149.063 55.7651 148.876 57.8595 149.418 59.8908C150.534 64.0724 154.434 66.6752 158.111 65.693C159.886 65.2191 161.348 63.9879 162.226 62.2269C163.11 60.4552 163.297 58.3609 162.755 56.3296C162.213 54.2984 161.005 52.5765 159.356 51.4804C158.201 50.7132 156.926 50.3185 155.651 50.3185Z" fill="#33184B"/>
<path d="M158.587 56.7603C159.158 54.3031 157.915 51.9151 155.81 51.4264C153.706 50.9378 151.538 52.5336 150.967 54.9908C150.397 57.448 151.64 59.8361 153.744 60.3247C155.848 60.8133 158.017 59.2175 158.587 56.7603Z" fill="#720D2D"/>
<path d="M154.516 60.6712C154.238 60.6712 153.961 60.6401 153.686 60.5761C151.45 60.057 150.119 57.5279 150.721 54.9384C151.323 52.3489 153.631 50.6652 155.868 51.1843C158.104 51.7035 159.435 54.2326 158.833 56.8221C158.544 58.0693 157.854 59.1467 156.89 59.8552C156.161 60.3921 155.34 60.6712 154.516 60.6712ZM155.046 51.5959C153.321 51.5959 151.688 53.0129 151.214 55.0522C150.676 57.3697 151.836 59.6258 153.801 60.0819C154.746 60.3014 155.736 60.0756 156.59 59.4472C157.456 58.8098 158.077 57.8364 158.339 56.7065C158.877 54.389 157.717 52.1329 155.752 51.6768C155.518 51.6226 155.28 51.5959 155.046 51.5959Z" fill="#33184B"/>
<path d="M130.804 49.5166C130.804 49.5166 125.841 56.7073 131.613 57.6185L130.804 49.5166Z" fill="#7E1030"/>
<path d="M182.539 211.576L172.224 149.888C172.063 148.922 172.715 148.009 173.68 147.848C174.646 147.687 175.56 148.338 175.721 149.304L186.11 211.438C184.919 211.469 183.728 211.517 182.539 211.576Z" fill="#EBEEF3"/>
<path d="M182.538 211.828C182.415 211.828 182.309 211.74 182.288 211.617L171.974 149.929C171.79 148.828 172.536 147.781 173.638 147.597C174.739 147.413 175.786 148.16 175.97 149.261L186.359 211.396C186.371 211.468 186.351 211.541 186.305 211.598C186.258 211.655 186.189 211.688 186.116 211.691C185.029 211.719 183.863 211.764 182.551 211.828C182.547 211.828 182.542 211.828 182.538 211.828ZM173.972 148.076C173.889 148.076 173.806 148.083 173.721 148.097C172.896 148.235 172.336 149.02 172.474 149.845L182.751 211.311C183.861 211.259 184.867 211.219 185.812 211.192L175.471 149.345C175.346 148.604 174.701 148.076 173.972 148.076Z" fill="#33184B"/>
<path d="M146.097 211.576L156.412 149.888C156.574 148.923 155.921 148.009 154.956 147.848C153.99 147.687 153.076 148.339 152.916 149.304L142.526 211.438C143.717 211.47 144.907 211.518 146.097 211.576Z" fill="#EBEEF3"/>
<path d="M146.097 211.829C146.093 211.829 146.089 211.829 146.085 211.829C144.773 211.765 143.607 211.719 142.519 211.691C142.446 211.689 142.377 211.655 142.331 211.598C142.284 211.542 142.264 211.468 142.277 211.396L152.666 149.262C152.85 148.16 153.896 147.414 154.998 147.597C156.099 147.781 156.846 148.828 156.662 149.929L146.347 211.617C146.327 211.74 146.22 211.829 146.097 211.829ZM142.824 211.193C143.768 211.221 144.775 211.26 145.885 211.312L156.162 149.847C156.3 149.021 155.741 148.236 154.914 148.098C154.088 147.96 153.303 148.52 153.165 149.346L142.824 211.193Z" fill="#33184B"/>
<path d="M188.486 91.4219L188.524 126.745C185.261 126.438 182.642 118.653 182.631 109.09C182.621 99.5265 185.224 91.7357 188.486 91.4219Z" fill="#91AAAA"/>
<path d="M188.523 126.998C188.515 126.998 188.507 126.998 188.499 126.997C186.813 126.838 185.256 124.874 184.117 121.468C183 118.13 182.382 113.734 182.377 109.09C182.373 104.446 182.981 100.048 184.091 96.7074C185.223 93.2991 186.776 91.3319 188.462 91.1692C188.533 91.1621 188.603 91.1861 188.657 91.2341C188.709 91.2821 188.739 91.3497 188.739 91.4217L188.777 126.745C188.777 126.816 188.746 126.885 188.694 126.933C188.648 126.974 188.586 126.998 188.523 126.998ZM188.233 91.7203C185.25 92.4413 182.875 100.063 182.884 109.089C182.893 118.114 185.285 125.732 188.27 126.446L188.233 91.7203Z" fill="#33184B"/>
<path d="M178.58 145.444H189.245C192.997 145.444 196.05 142.391 196.05 138.639V126.252C196.05 125.273 195.256 124.479 194.277 124.479C193.298 124.479 192.505 125.273 192.505 126.252V138.639C192.505 140.437 191.042 141.899 189.244 141.899H178.579C177.6 141.899 176.807 142.693 176.807 143.672C176.808 144.651 177.601 145.444 178.58 145.444Z" fill="#EBEEF3"/>
<path d="M189.245 145.697H178.58C177.464 145.697 176.554 144.788 176.554 143.671C176.554 142.554 177.463 141.645 178.58 141.645H189.245C190.903 141.645 192.252 140.296 192.252 138.638V126.251C192.252 125.134 193.161 124.225 194.278 124.225C195.395 124.225 196.304 125.134 196.304 126.251V138.638C196.303 142.53 193.137 145.697 189.245 145.697ZM178.58 142.153C177.743 142.153 177.061 142.834 177.061 143.672C177.061 144.509 177.743 145.191 178.58 145.191H189.245C192.858 145.191 195.796 142.252 195.796 138.639V126.253C195.796 125.415 195.115 124.734 194.277 124.734C193.44 124.734 192.758 125.415 192.758 126.253V138.639C192.758 140.576 191.182 142.153 189.244 142.153H178.58V142.153Z" fill="#33184B"/>
<path d="M183.695 148.903V140.465C183.695 139.243 182.705 138.253 181.483 138.253H146.207C144.985 138.253 143.995 139.243 143.995 140.465V148.903C143.995 150.125 144.985 151.115 146.207 151.115H181.483C182.705 151.115 183.695 150.125 183.695 148.903Z" fill="#AABEBF"/>
<path d="M181.175 151.369H146.514C144.985 151.369 143.742 150.125 143.742 148.596V140.773C143.742 139.244 144.985 138 146.514 138H181.175C182.704 138 183.947 139.244 183.947 140.773V148.596C183.948 150.125 182.704 151.369 181.175 151.369ZM146.514 138.506C145.264 138.506 144.248 139.523 144.248 140.772V148.595C144.248 149.845 145.265 150.861 146.514 150.861H181.175C182.424 150.861 183.441 149.844 183.441 148.595V140.772C183.441 139.522 182.424 138.506 181.175 138.506H146.514Z" fill="#33184B"/>
<path d="M189.096 128.986H197.535C198.757 128.986 199.747 127.996 199.747 126.775V91.4983C199.747 90.2769 198.757 89.2866 197.535 89.2866H189.096C187.875 89.2866 186.885 90.2769 186.885 91.4983V126.775C186.885 127.996 187.875 128.986 189.096 128.986Z" fill="#AABEBF"/>
<path d="M197.227 129.24H189.404C187.875 129.24 186.631 127.996 186.631 126.467V91.8068C186.631 90.2778 187.875 89.0342 189.404 89.0342H197.227C198.756 89.0342 199.999 90.2778 199.999 91.8068V126.467C199.999 127.996 198.756 129.24 197.227 129.24ZM189.404 89.54C188.154 89.54 187.138 90.5569 187.138 91.8059V126.466C187.138 127.716 188.155 128.732 189.404 128.732H197.227C198.477 128.732 199.493 127.715 199.493 126.466V91.8059C199.493 90.5561 198.476 89.54 197.227 89.54H189.404Z" fill="#33184B"/>
<path d="M130.916 178.873L130.786 190.142L119.045 189.566L117.392 178.96L130.916 178.873Z" fill="#FFBF81"/>
<path d="M130.997 189.092C130.86 189.092 130.747 188.983 130.744 188.846L130.519 180.084C130.515 179.945 130.625 179.828 130.765 179.825C130.768 179.825 130.769 179.825 130.771 179.825C130.908 179.825 131.021 179.934 131.024 180.071L131.249 188.832C131.253 188.972 131.143 189.088 131.003 189.092C131.001 189.092 130.999 189.092 130.997 189.092Z" fill="#33184B"/>
<path d="M118.896 189.65C118.768 189.65 118.658 189.554 118.644 189.424L117.711 180.66C117.696 180.522 117.798 180.396 117.936 180.382C118.077 180.369 118.2 180.468 118.215 180.607L119.147 189.37C119.162 189.509 119.061 189.634 118.922 189.648C118.913 189.649 118.904 189.65 118.896 189.65Z" fill="#33184B"/>
<path d="M170.175 122.708C170.175 122.708 170.377 132.025 169.871 133.341C169.364 134.658 167.542 139.215 162.984 140.025C158.426 140.835 130.896 142.658 130.896 142.658L133.226 184.08L117.123 184.788L114.187 140.025C114.187 140.025 112.094 129.24 121.513 127.518C130.931 125.796 141.059 123.467 141.059 123.467L170.175 122.708Z" fill="#80102F"/>
<path d="M117.124 185.042C116.991 185.042 116.88 184.939 116.871 184.805L113.935 140.057C113.863 139.674 112.979 134.627 115.529 130.892C116.843 128.968 118.841 127.749 121.467 127.269C130.772 125.568 140.901 123.244 141.002 123.221C141.019 123.217 141.035 123.214 141.052 123.214L170.168 122.455C170.24 122.453 170.301 122.478 170.35 122.525C170.399 122.572 170.427 122.636 170.428 122.703C170.436 123.086 170.625 132.086 170.107 133.434C168.202 138.388 165.206 139.889 163.028 140.276C158.742 141.038 133.937 142.711 131.164 142.896L133.479 184.067C133.482 184.134 133.459 184.201 133.414 184.251C133.368 184.301 133.304 184.331 133.237 184.334L117.134 185.043C117.131 185.042 117.127 185.042 117.124 185.042ZM141.09 123.719C140.524 123.849 130.649 126.105 121.558 127.767C119.071 128.221 117.183 129.369 115.949 131.175C113.472 134.799 114.426 139.925 114.436 139.977C114.437 139.987 114.439 139.998 114.44 140.008L117.361 184.524L132.96 183.837L130.646 142.671C130.638 142.532 130.743 142.413 130.882 142.404C131.158 142.386 158.45 140.573 162.942 139.775C164.991 139.41 167.816 137.983 169.637 133.249C170.025 132.24 169.983 125.716 169.929 122.966L141.09 123.719Z" fill="#33184B"/>
<path d="M133.311 188.334L135.134 211.425H97.0547V202.968C97.0547 202.968 109.36 202.259 112.094 198.107C114.828 193.955 116.246 188.587 116.246 188.587L133.311 188.334Z" fill="#EBEEF3"/>
<path d="M97.0546 211.678C96.9879 211.678 96.9239 211.652 96.8768 211.605C96.8288 211.557 96.8013 211.492 96.8013 211.424V202.968C96.8013 202.899 96.8297 202.832 96.8804 202.784C96.9311 202.736 96.9995 202.712 97.0688 202.715C97.1088 202.717 101.072 202.923 105.32 201.546C110.982 199.709 114.439 196.08 115.593 190.762C115.622 190.625 115.757 190.539 115.894 190.568C116.031 190.597 116.117 190.732 116.088 190.869C115.43 193.901 114.014 196.439 111.881 198.412C110.177 199.987 108.018 201.205 105.461 202.033C101.764 203.229 98.2805 203.251 97.3071 203.231V211.169L135.209 210.72L133.08 188.591L116.249 188.841C116.248 188.841 116.246 188.841 116.245 188.841C116.108 188.841 115.995 188.73 115.992 188.591C115.99 188.451 116.101 188.336 116.242 188.334L133.306 188.081C133.438 188.078 133.55 188.178 133.562 188.31L135.739 210.944C135.746 211.015 135.723 211.085 135.675 211.138C135.628 211.191 135.56 211.222 135.489 211.223L97.0555 211.679C97.0564 211.678 97.0555 211.678 97.0546 211.678Z" fill="#33184B"/>
<path d="M97.3574 208.436C97.2196 208.436 97.1067 208.326 97.1041 208.188C97.1014 208.048 97.2125 207.932 97.353 207.93L135.837 207.221C135.974 207.218 136.093 207.33 136.095 207.47C136.098 207.61 135.987 207.725 135.846 207.728L97.3618 208.436C97.3609 208.436 97.3592 208.436 97.3574 208.436Z" fill="#33184B"/>
<path d="M114.22 202.107C114.105 202.107 114.001 202.028 113.974 201.911C113.949 201.803 113.334 199.306 110.469 199.433C110.329 199.441 110.211 199.332 110.205 199.191C110.199 199.052 110.306 198.934 110.447 198.927C113.743 198.778 114.462 201.767 114.468 201.798C114.499 201.934 114.414 202.07 114.277 202.101C114.258 202.104 114.239 202.107 114.22 202.107Z" fill="#33184B"/>
<path d="M118.069 197.549C117.987 197.549 117.906 197.509 117.858 197.437C117.837 197.405 116.27 195.108 114.121 195.735C113.987 195.774 113.847 195.697 113.808 195.564C113.768 195.429 113.846 195.289 113.979 195.25C116.49 194.516 118.208 197.049 118.28 197.157C118.357 197.273 118.325 197.43 118.209 197.508C118.165 197.536 118.117 197.549 118.069 197.549Z" fill="#33184B"/>
<path d="M111.486 195.726C111.372 195.726 111.268 195.649 111.241 195.533C111.208 195.397 111.291 195.26 111.426 195.227C113.714 194.67 114.907 193.197 115.468 192.21C114.274 192.971 112.087 193.976 109.685 193.18C109.552 193.137 109.48 192.994 109.524 192.86C109.567 192.728 109.711 192.655 109.844 192.699C111.791 193.344 113.631 192.664 114.8 192.009C113.574 192.388 112.501 192.195 111.777 191.44C110.943 190.571 110.824 189.128 111.489 187.931C111.785 187.395 112.182 187.277 112.462 187.271C112.468 187.271 112.474 187.271 112.481 187.271C113.841 187.271 115.639 189.889 116.262 190.865C118.219 190.235 120.04 190.864 120.878 191.905C121.521 192.706 121.522 193.658 120.879 194.451C120.543 194.865 120.131 195.055 119.66 195.02C118.305 194.916 116.808 192.83 116.201 191.894C115.774 192.873 114.53 194.99 111.546 195.717C111.526 195.725 111.505 195.726 111.486 195.726ZM116.485 191.403C117.103 192.403 118.579 194.432 119.698 194.517C119.999 194.54 120.256 194.415 120.485 194.134C120.974 193.531 120.973 192.835 120.482 192.225C119.761 191.328 118.164 190.834 116.5 191.327C116.499 191.353 116.494 191.378 116.485 191.403ZM112.482 187.78C112.478 187.78 112.474 187.78 112.47 187.78C112.332 187.783 112.126 187.826 111.93 188.178C111.373 189.184 111.46 190.381 112.141 191.09C112.869 191.85 114.074 191.89 115.447 191.201C115.556 191.146 115.666 191.095 115.775 191.049C115.006 189.864 113.451 187.78 112.482 187.78Z" fill="#33184B"/>
<path d="M126.684 207.82C126.681 207.82 126.677 207.82 126.675 207.82C126.535 207.816 126.426 207.699 126.43 207.559C126.594 202.824 128.758 200.271 130.546 198.965C132.484 197.548 134.36 197.26 134.439 197.248C134.578 197.229 134.706 197.324 134.726 197.462C134.746 197.6 134.65 197.728 134.513 197.749C134.482 197.753 132.659 198.04 130.827 199.386C128.371 201.191 127.062 203.946 126.937 207.575C126.932 207.713 126.82 207.82 126.684 207.82Z" fill="#33184B"/>
<path d="M109.663 204.74C109.527 204.74 109.415 204.634 109.41 204.498C109.318 202.268 107.008 201.367 106.985 201.358C106.854 201.308 106.789 201.162 106.837 201.032C106.886 200.901 107.032 200.834 107.164 200.884C107.271 200.925 109.809 201.908 109.917 204.477C109.923 204.617 109.814 204.735 109.674 204.74C109.67 204.74 109.666 204.74 109.663 204.74Z" fill="#33184B"/>
<path d="M112.042 104.67C112.042 104.67 110.501 104.083 110.938 102.166C111.374 100.248 115.126 104.752 116.892 105.358C118.658 105.964 120.208 106.71 120.208 106.71L117.185 108.293L112.042 104.67Z" fill="#FFBF81"/>
<path d="M117.309 106.022C117.275 106.022 117.241 106.015 117.208 106.002C116.211 105.571 115.171 104.568 114.165 103.598C113.208 102.674 112.213 101.719 111.668 101.744C111.568 101.749 111.49 101.789 111.417 101.873C110.517 102.906 111.557 104.102 111.602 104.153C111.694 104.257 111.685 104.417 111.581 104.51C111.477 104.602 111.317 104.594 111.224 104.49C110.74 103.949 110.079 102.638 111.034 101.54C111.2 101.35 111.405 101.248 111.646 101.238C112.414 101.202 113.388 102.145 114.516 103.233C115.445 104.128 116.496 105.141 117.409 105.537C117.537 105.593 117.597 105.741 117.541 105.869C117.5 105.965 117.406 106.022 117.309 106.022Z" fill="#33184B"/>
<path d="M86.5975 90.2798H110.498C110.498 90.2798 110.13 112.001 124.29 114.559H98.1423C98.1432 114.559 85.6863 109.218 86.5975 90.2798Z" fill="#EBEEF3"/>
<path d="M124.289 114.812H98.1415C98.1068 114.812 98.0731 114.805 98.0419 114.792C97.9122 114.736 94.8355 113.389 91.8308 109.68C90.0698 107.507 88.7053 104.971 87.7754 102.142C86.6162 98.6136 86.1344 94.6178 86.3433 90.2673C86.3496 90.1321 86.4616 90.0264 86.5958 90.0264H110.496C110.564 90.0264 110.63 90.0539 110.677 90.1019C110.725 90.1499 110.75 90.2157 110.75 90.2833C110.749 90.3375 110.678 95.7512 112.328 101.4C114.527 108.924 118.566 113.268 124.333 114.31C124.462 114.333 124.551 114.451 124.54 114.582C124.53 114.713 124.421 114.812 124.289 114.812ZM98.1966 114.305H122.28C119.833 113.484 117.715 111.99 115.965 109.846C114.212 107.7 112.824 104.901 111.841 101.53C110.377 96.5139 110.253 91.6834 110.245 90.5322H86.8385C86.4349 100.079 89.5276 106.024 92.206 109.339C94.9386 112.72 97.8037 114.124 98.1966 114.305Z" fill="#33184B"/>
<path d="M123.811 91.4609L118.749 107.2L129.671 108.796L134.045 93.5704L123.811 91.4609Z" fill="#FFBF81"/>
<path d="M129.671 109.049C129.659 109.049 129.647 109.048 129.635 109.046L118.712 107.451C118.639 107.44 118.574 107.397 118.534 107.334C118.495 107.271 118.485 107.194 118.508 107.123L123.571 91.3838C123.61 91.2603 123.736 91.1874 123.863 91.2132L134.097 93.3227C134.166 93.3369 134.226 93.3795 134.262 93.44C134.298 93.5004 134.308 93.5733 134.289 93.6409L129.915 108.866C129.884 108.975 129.783 109.049 129.671 109.049ZM119.081 106.993L129.489 108.513L133.726 93.7627L123.982 91.7554L119.081 106.993Z" fill="#33184B"/>
<path d="M133.428 69.5386C133.428 69.5386 131.528 70.1742 130.561 72.5912C129.594 75.0083 122.155 93.6745 122.155 93.6745C122.155 93.6745 130.907 97.513 135.71 96.1689L133.428 69.5386Z" fill="#97133B"/>
<path d="M141.449 178.873L141.318 190.142L129.578 189.566L127.924 178.96L141.449 178.873Z" fill="#FFBF81"/>
<path d="M141.529 189.092C141.392 189.092 141.279 188.983 141.276 188.846L141.051 180.084C141.047 179.945 141.158 179.828 141.297 179.825C141.3 179.825 141.302 179.825 141.303 179.825C141.44 179.825 141.553 179.934 141.557 180.071L141.782 188.832C141.785 188.972 141.675 189.088 141.535 189.092C141.534 189.092 141.531 189.092 141.529 189.092Z" fill="#33184B"/>
<path d="M129.428 189.65C129.3 189.65 129.19 189.554 129.176 189.424L128.244 180.66C128.229 180.522 128.33 180.396 128.469 180.382C128.608 180.369 128.733 180.468 128.747 180.607L129.679 189.37C129.694 189.509 129.593 189.634 129.454 189.648C129.446 189.649 129.437 189.65 129.428 189.65Z" fill="#33184B"/>
<path d="M180.707 122.708C180.707 122.708 180.909 132.025 180.403 133.341C179.896 134.658 178.073 139.215 173.516 140.025C168.958 140.835 141.428 142.658 141.428 142.658L143.757 184.08L127.655 184.788L124.719 140.025C124.719 140.025 122.626 129.24 132.044 127.518C141.463 125.796 151.591 123.467 151.591 123.467L180.707 122.708Z" fill="#720D2D"/>
<path d="M127.656 185.042C127.523 185.042 127.412 184.939 127.403 184.805L124.467 140.057C124.395 139.674 123.511 134.627 126.061 130.892C127.375 128.968 129.373 127.749 131.999 127.269C141.304 125.568 151.433 123.244 151.534 123.221C151.551 123.217 151.568 123.214 151.584 123.214L180.701 122.455C180.77 122.453 180.833 122.478 180.882 122.525C180.931 122.572 180.959 122.636 180.96 122.703C180.968 123.086 181.158 132.086 180.639 133.434C178.734 138.388 175.738 139.889 173.561 140.276C169.274 141.038 144.47 142.711 141.696 142.896L144.011 184.067C144.014 184.134 143.991 184.201 143.946 184.251C143.901 184.301 143.837 184.331 143.769 184.334L127.667 185.043C127.663 185.042 127.659 185.042 127.656 185.042ZM151.623 123.719C151.057 123.849 141.182 126.105 132.091 127.767C129.604 128.221 127.716 129.369 126.482 131.175C124.005 134.799 124.959 139.925 124.969 139.977C124.97 139.987 124.972 139.998 124.973 140.008L127.894 184.524L143.494 183.837L141.179 142.671C141.171 142.532 141.276 142.413 141.415 142.404C141.691 142.386 168.983 140.573 173.475 139.775C175.524 139.41 178.349 137.983 180.17 133.249C180.558 132.24 180.516 125.716 180.462 122.966L151.623 123.719Z" fill="#33184B"/>
<path d="M153.582 65.8931C153.582 65.8931 155 65.9944 156.452 67.463C156.452 67.463 167.491 72.4251 168.402 73.7416C169.313 75.0582 181.871 123.568 181.871 123.568C181.871 123.568 171.744 128.227 163.136 126.505C154.528 124.783 141.058 125.897 141.058 125.897C141.058 125.897 134.374 95.1103 134.272 89.7428C134.171 84.3753 133.173 69.5902 133.173 69.5902L142.034 67.1092C142.034 67.1092 143.352 66.5011 144.567 66.5011C144.569 66.5002 146.02 72.7176 153.582 65.8931Z" fill="#97133B"/>
<path d="M167.698 127.205C166.194 127.205 164.638 127.074 163.084 126.753C153.913 124.859 141.21 126.136 141.083 126.15C140.953 126.163 140.834 126.075 140.809 125.946L138.581 114.603C138.554 114.466 138.643 114.333 138.781 114.306C138.918 114.279 139.051 114.368 139.078 114.506L141.262 125.623C143.034 125.46 154.624 124.488 163.187 126.257C171.608 127.996 180.223 124.084 181.573 123.433L169.064 76.5487C168.814 75.7949 168.073 73.7458 167.603 73.1973C167.186 72.712 160.478 69.5633 156.348 67.6929C156.22 67.6352 156.163 67.4849 156.221 67.3578C156.279 67.2307 156.428 67.1738 156.556 67.2316C157.66 67.7312 167.361 72.1368 167.987 72.8675C168.619 73.6063 169.509 76.2829 169.547 76.3967C169.548 76.4011 169.549 76.4065 169.551 76.4109L182.116 123.503C182.147 123.618 182.093 123.739 181.988 123.794C181.964 123.806 179.569 125.032 176.065 126.003C173.863 126.613 170.899 127.205 167.698 127.205Z" fill="#33184B"/>
<path d="M151.692 56.5249L154.393 66.1967C154.393 66.1967 153.718 68.2724 150.578 69.3872C147.438 70.501 144.401 70.3997 143.387 67.1594L140.957 58.7535L151.692 56.5249Z" fill="#FFBF81"/>
<path d="M116.398 106.808C129.478 106.92 143.685 104.81 149.218 104.498C149.741 102.866 150.344 100.852 151.034 98.3008C153.973 99.7062 157.645 100.994 160.554 102.453C160.502 102.642 160.456 102.671 160.402 102.861C158.362 110.164 157.043 111.248 156.005 112.285C154.577 113.713 152.751 113.865 151.139 113.999C150.031 114.09 148.553 114.166 146.622 114.229C143.504 114.331 139.248 114.398 133.971 114.428C131.727 114.441 129.485 114.446 127.382 114.446C121.102 114.446 116.566 114.306 116.5 114.302C114.98 114.201 112.932 111.793 112.955 109.137C112.977 106.494 116.384 106.807 116.398 106.808Z" fill="#FFBF81"/>
<path d="M118.727 114.301L113.142 112.787C113.142 112.787 106.935 113.074 106.206 110.965C106.206 110.965 104.985 110.361 104.97 108.95C104.97 108.95 104.107 107.876 104.73 106.975C104.73 106.975 104.394 105.583 106.088 104.909L112.334 104.171L120.208 106.709L118.727 114.301Z" fill="#FFBF81"/>
<path d="M138.336 114.757C128.426 114.757 116.514 114.5 116.33 114.496C116.295 114.495 116.261 114.488 116.23 114.474L113.093 113.045C112.411 113.08 107.076 113.286 105.979 111.08C105.917 110.955 105.967 110.803 106.093 110.74C106.218 110.678 106.37 110.729 106.432 110.854C107.261 112.521 111.544 112.632 113.125 112.535C113.167 112.533 113.208 112.541 113.246 112.558L116.392 113.991C117.761 114.021 144.677 114.585 150.376 113.954C155.915 113.34 157.162 110.863 157.831 109.532L157.912 109.373C158.568 108.087 160.294 102.438 160.311 102.381C160.351 102.247 160.493 102.172 160.626 102.213C160.76 102.254 160.835 102.395 160.794 102.528C160.723 102.762 159.039 108.278 158.362 109.604L158.283 109.761C157.57 111.177 156.243 113.814 150.431 114.458C148.39 114.683 143.65 114.757 138.336 114.757Z" fill="#33184B"/>
<path d="M112.356 111.064C112.322 111.064 112.289 111.058 112.257 111.043C111.772 110.835 111.236 110.677 111.109 110.707C110.823 110.82 107.51 110.906 106.1 110.937C106.059 110.939 106.017 110.929 105.981 110.91C105.931 110.885 104.756 110.279 104.716 108.959C104.712 108.819 104.822 108.703 104.962 108.698C105.1 108.694 105.218 108.804 105.222 108.944C105.248 109.832 105.955 110.311 106.157 110.429C107.884 110.391 110.644 110.304 110.936 110.231C111.272 110.108 112.031 110.395 112.457 110.579C112.585 110.634 112.644 110.783 112.589 110.911C112.547 111.006 112.454 111.064 112.356 111.064ZM110.932 110.232C110.93 110.233 110.929 110.233 110.928 110.234C110.929 110.234 110.931 110.233 110.932 110.232Z" fill="#33184B"/>
<path d="M111.984 109.032C111.96 109.032 111.935 109.028 111.911 109.02L110.713 108.655L105.003 108.978C104.932 108.981 104.864 108.956 104.812 108.908C104.453 108.563 103.931 107.684 104.52 106.832C104.599 106.717 104.757 106.688 104.872 106.768C104.987 106.847 105.016 107.005 104.936 107.12C104.535 107.7 104.922 108.264 105.092 108.466L110.728 108.147C110.758 108.146 110.788 108.149 110.816 108.158L112.056 108.537C112.19 108.578 112.265 108.719 112.225 108.853C112.193 108.962 112.093 109.032 111.984 109.032Z" fill="#33184B"/>
<path d="M111.594 107.225C111.583 107.225 111.57 107.224 111.559 107.223L109.962 106.996L104.792 107.096C104.664 107.099 104.556 107.007 104.537 106.881C104.528 106.825 104.346 105.511 105.828 104.77C105.853 104.758 105.88 104.75 105.908 104.745C106.156 104.712 111.994 103.936 112.32 103.918C112.321 103.918 112.323 103.918 112.325 103.918C112.694 103.918 117.585 105.543 120.478 106.516C120.611 106.56 120.682 106.704 120.638 106.837C120.593 106.969 120.45 107.041 120.317 106.996C117.329 105.992 112.763 104.487 112.334 104.425C112.003 104.453 108.415 104.923 106.016 105.242C105.223 105.655 105.06 106.262 105.035 106.585L109.972 106.489C109.985 106.489 109.999 106.49 110.013 106.492L111.63 106.721C111.769 106.741 111.865 106.869 111.845 107.008C111.826 107.135 111.718 107.225 111.594 107.225Z" fill="#33184B"/>
<path d="M163.642 104.377C163.599 104.377 163.556 104.366 163.518 104.344C157.531 100.951 148.157 97.61 148.063 97.5771C147.942 97.5335 147.872 97.4064 147.902 97.2811C147.93 97.1593 150.753 85.0731 151.955 80.7625C153.179 76.3773 156.269 73.9461 156.399 73.8447C156.509 73.7594 156.669 73.7798 156.754 73.8901C156.839 74.0003 156.82 74.1594 156.709 74.2456C156.677 74.2696 153.619 76.6814 152.442 80.8986C151.332 84.8766 148.835 95.512 148.446 97.1762C149.857 97.6873 157.939 100.662 163.457 103.729L166.837 85.1397C166.862 85.002 166.994 84.9104 167.132 84.9362C167.269 84.9611 167.36 85.0926 167.335 85.2304L163.892 104.169C163.877 104.25 163.825 104.318 163.75 104.353C163.715 104.37 163.679 104.377 163.642 104.377Z" fill="#33184B"/>
<path d="M122.339 107.111C122.21 107.111 122.1 107.012 122.088 106.882C122.074 106.742 122.176 106.619 122.316 106.606C122.556 106.584 146.329 104.351 148.145 104.176C148.451 104.146 148.739 104.133 149.002 104.135C149.442 102.467 150.519 99.0109 150.779 98.1824C150.82 98.049 150.963 97.9753 151.096 98.0162C151.229 98.0579 151.304 98.2002 151.262 98.3335C150.699 100.129 149.886 102.8 149.517 104.161C150.187 104.23 150.643 104.425 150.806 104.73C150.876 104.863 150.954 105.133 150.683 105.459C150.322 105.897 149.814 105.917 149.46 105.79C149.076 105.652 148.817 105.335 148.817 105C148.817 104.939 148.838 104.815 148.878 104.641C148.674 104.642 148.447 104.654 148.194 104.679C146.379 104.854 122.605 107.087 122.365 107.109C122.355 107.111 122.347 107.111 122.339 107.111ZM149.387 104.659C149.346 104.831 149.322 104.949 149.322 105C149.322 105.118 149.451 105.25 149.63 105.314C149.723 105.348 150.047 105.434 150.292 105.138C150.336 105.085 150.382 105.014 150.358 104.969C150.303 104.866 150.004 104.712 149.387 104.659Z" fill="#33184B"/>
<path d="M147.379 70.4112C146.779 70.4112 146.222 70.309 145.71 70.1045C143.602 69.2618 143.076 67.0056 143.055 66.9105L142.501 64.0988C142.475 63.9619 142.564 63.8285 142.7 63.8018C142.837 63.7743 142.971 63.8641 142.998 64.001L143.551 66.8065C143.555 66.8207 144.044 68.8964 145.903 69.6369C147.642 70.3294 150.001 69.6894 152.915 67.7355C153.032 67.6572 153.188 67.6883 153.267 67.8048C153.345 67.9212 153.314 68.0786 153.197 68.1559C150.958 69.6565 149.009 70.4112 147.379 70.4112Z" fill="#33184B"/>
<path d="M143.843 188.334L145.666 211.425H107.587V202.968C107.587 202.968 119.892 202.259 122.626 198.107C125.361 193.955 126.779 188.587 126.779 188.587L143.843 188.334Z" fill="#EBEEF3"/>
<path d="M107.587 211.678C107.52 211.678 107.456 211.652 107.409 211.605C107.361 211.557 107.333 211.492 107.333 211.424V202.968C107.333 202.899 107.362 202.832 107.413 202.784C107.463 202.736 107.531 202.712 107.601 202.715C107.64 202.718 111.604 202.923 115.852 201.546C121.514 199.709 124.971 196.08 126.125 190.762C126.154 190.625 126.29 190.539 126.426 190.568C126.563 190.597 126.65 190.732 126.62 190.869C125.962 193.901 124.546 196.439 122.413 198.412C120.71 199.987 118.55 201.205 115.994 202.033C112.297 203.229 108.813 203.252 107.839 203.231V211.169L145.742 210.72L143.613 188.591L126.781 188.841C126.641 188.841 126.526 188.731 126.524 188.591C126.522 188.451 126.634 188.336 126.774 188.334L143.838 188.081C143.973 188.078 144.082 188.178 144.094 188.31L146.271 210.944C146.278 211.015 146.255 211.085 146.207 211.138C146.16 211.191 146.093 211.222 146.022 211.223L107.588 211.679C107.589 211.678 107.588 211.678 107.587 211.678Z" fill="#33184B"/>
<path d="M107.891 208.436C107.753 208.436 107.64 208.326 107.637 208.188C107.635 208.048 107.746 207.932 107.886 207.93L146.371 207.221C146.506 207.218 146.626 207.33 146.628 207.47C146.631 207.61 146.52 207.725 146.38 207.728L107.895 208.436C107.893 208.436 107.891 208.436 107.891 208.436Z" fill="#33184B"/>
<path d="M124.752 202.107C124.637 202.107 124.533 202.028 124.506 201.911C124.481 201.803 123.866 199.306 121.001 199.433C120.862 199.441 120.743 199.332 120.737 199.191C120.731 199.052 120.838 198.934 120.979 198.927C124.276 198.778 124.994 201.767 125 201.798C125.032 201.934 124.946 202.07 124.81 202.101C124.79 202.104 124.771 202.107 124.752 202.107Z" fill="#33184B"/>
<path d="M128.602 197.549C128.52 197.549 128.439 197.509 128.391 197.437C128.37 197.405 126.803 195.108 124.654 195.735C124.52 195.774 124.379 195.697 124.34 195.564C124.301 195.429 124.378 195.289 124.512 195.25C127.023 194.516 128.741 197.049 128.813 197.157C128.89 197.273 128.858 197.43 128.741 197.508C128.699 197.536 128.65 197.549 128.602 197.549Z" fill="#33184B"/>
<path d="M122.019 195.726C121.905 195.726 121.801 195.649 121.773 195.533C121.74 195.397 121.824 195.26 121.959 195.227C124.246 194.67 125.439 193.197 126.001 192.21C124.806 192.971 122.62 193.976 120.218 193.18C120.085 193.137 120.013 192.994 120.057 192.86C120.1 192.728 120.243 192.655 120.377 192.699C122.323 193.344 124.164 192.664 125.333 192.009C124.107 192.388 123.034 192.195 122.309 191.44C121.475 190.571 121.357 189.128 122.021 187.931C122.318 187.395 122.715 187.277 122.995 187.271C123.001 187.271 123.007 187.271 123.013 187.271C124.373 187.271 126.172 189.889 126.795 190.865C128.752 190.235 130.573 190.864 131.41 191.905C132.054 192.706 132.055 193.658 131.411 194.451C131.075 194.865 130.664 195.055 130.192 195.02C128.838 194.916 127.341 192.83 126.734 191.894C126.307 192.873 125.062 194.99 122.079 195.717C122.059 195.725 122.038 195.726 122.019 195.726ZM127.018 191.403C127.636 192.403 129.112 194.432 130.231 194.517C130.533 194.54 130.789 194.415 131.017 194.134C131.506 193.531 131.505 192.835 131.015 192.225C130.294 191.328 128.696 190.834 127.032 191.327C127.031 191.353 127.027 191.378 127.018 191.403ZM123.015 187.78C123.011 187.78 123.007 187.78 123.003 187.78C122.865 187.783 122.659 187.826 122.463 188.178C121.906 189.184 121.993 190.381 122.674 191.09C123.402 191.85 124.607 191.89 125.98 191.201C126.089 191.146 126.198 191.095 126.308 191.049C125.539 189.864 123.984 187.78 123.015 187.78Z" fill="#33184B"/>
<path d="M137.216 207.82C137.213 207.82 137.21 207.82 137.207 207.82C137.067 207.816 136.958 207.699 136.963 207.559C137.126 202.824 139.291 200.271 141.078 198.965C143.016 197.548 144.892 197.26 144.971 197.248C145.11 197.229 145.238 197.324 145.258 197.462C145.279 197.6 145.183 197.728 145.045 197.749C145.015 197.753 143.191 198.04 141.359 199.386C138.903 201.191 137.595 203.946 137.469 207.575C137.464 207.713 137.352 207.82 137.216 207.82Z" fill="#33184B"/>
<path d="M120.196 204.74C120.061 204.74 119.949 204.634 119.944 204.498C119.851 202.268 117.542 201.367 117.518 201.358C117.387 201.308 117.321 201.162 117.37 201.032C117.419 200.901 117.566 200.834 117.696 200.884C117.803 200.925 120.341 201.908 120.449 204.477C120.455 204.617 120.345 204.735 120.206 204.74C120.203 204.74 120.2 204.74 120.196 204.74Z" fill="#33184B"/>
<path d="M131.979 96.8401C129.825 96.8401 127.791 96.3397 126.258 95.8196C123.779 94.9778 122.091 93.9342 122.021 93.8897C121.919 93.8257 121.875 93.6986 121.918 93.5857C121.979 93.423 128.097 77.2503 129.7 73.4411C131.275 69.7022 133.12 69.3244 133.379 69.2897L143.236 66.6104C143.37 66.574 143.509 66.6531 143.546 66.7882C143.582 66.9233 143.503 67.062 143.368 67.0994L133.494 69.7831C133.478 69.7875 133.463 69.7902 133.447 69.7911C133.433 69.7929 131.692 70.0142 130.166 73.6376C128.663 77.2076 123.175 91.6913 122.465 93.5652C123.573 94.2044 129.634 97.474 135.106 95.9201C135.24 95.8818 135.381 95.9601 135.419 96.0943C135.457 96.2285 135.379 96.369 135.245 96.4072C134.159 96.7157 133.054 96.8401 131.979 96.8401Z" fill="#33184B"/>
<path d="M150.209 63.2892C150.209 63.2892 139.709 70.8186 138.561 70.4097C137.412 70.0007 134.606 64.6901 134.606 64.6901C134.606 64.6901 133.124 65.6182 132.501 64.8875C131.876 64.1568 133.714 62.7576 132.46 59.6596C131.205 56.5616 128.478 51.9843 132.468 48.0747C136.457 44.1651 144.573 42.0814 148.091 46.9938C151.609 51.9061 152.357 59.6889 152.357 59.6889L150.209 63.2892Z" fill="#FFBF81"/>
<path d="M134.045 58.4605C133.982 58.4863 133.909 58.4863 133.843 58.4561C133.716 58.3974 133.661 58.2472 133.719 58.1201C134.73 55.9324 137.148 56.5893 137.172 56.5964C137.306 56.6346 137.384 56.7742 137.346 56.9093C137.308 57.0436 137.168 57.1218 137.034 57.0836C136.951 57.0604 135.006 56.5413 134.179 58.3325C134.151 58.393 134.102 58.4374 134.045 58.4605Z" fill="#7E1030"/>
<path d="M136.074 60.3794C136.438 60.3794 136.733 60.0845 136.733 59.7207C136.733 59.3569 136.438 59.062 136.074 59.062C135.71 59.062 135.416 59.3569 135.416 59.7207C135.416 60.0845 135.71 60.3794 136.074 60.3794Z" fill="#33184B"/>
<path d="M137.765 67.2145C137.665 67.2145 137.57 67.155 137.53 67.0563C137.478 66.9265 137.54 66.779 137.67 66.7265C140.301 65.6615 140.051 64.3743 140.048 64.3619C140.013 64.2268 140.094 64.0881 140.23 64.0534C140.366 64.0188 140.504 64.0997 140.539 64.2357C140.556 64.305 140.94 65.9487 137.861 67.1959C137.829 67.2083 137.797 67.2145 137.765 67.2145Z" fill="#33184B"/>
<path d="M138.622 70.6659C138.59 70.6659 138.56 70.6641 138.531 70.6606C137.154 70.5023 135.039 66.2096 134.5 65.0637C134.163 65.2646 133.553 65.5518 132.989 65.4175C132.618 65.3295 132.333 65.0824 132.14 64.6824C131.841 64.0637 132.05 63.6654 132.27 63.2432C132.596 62.6218 133.041 61.7702 132.084 59.4047C130.611 55.7653 130.417 54.2985 130.393 54.039C130.308 53.7945 129.895 52.4442 130.509 50.6849C131.113 48.9559 132.872 46.4864 137.831 44.5361C140.708 43.4044 143.281 43.416 145.478 44.5698C149.591 46.7291 151.031 52.1215 151.278 53.1802C151.81 55.4648 151.991 58.2064 151.993 58.2339C152.001 58.3735 151.896 58.4935 151.756 58.5024C151.615 58.5122 151.497 58.4055 151.487 58.2659C151.485 58.2393 151.308 55.5377 150.785 53.2949C150.639 52.6691 149.243 47.1176 145.243 45.0179C143.181 43.9351 140.75 43.9316 138.016 45.0072C134.251 46.4873 131.825 48.4972 130.999 50.8183C130.381 52.5553 130.874 53.8798 130.879 53.8932C130.889 53.9181 130.894 53.9447 130.896 53.9714C130.897 53.9838 130.993 55.3591 132.553 59.2136C133.598 61.7968 133.091 62.7676 132.719 63.477C132.518 63.861 132.408 64.0717 132.596 64.461C132.721 64.7197 132.888 64.8708 133.107 64.9233C133.593 65.0389 134.243 64.6477 134.452 64.4868C134.515 64.4388 134.596 64.4228 134.672 64.4433C134.749 64.4637 134.811 64.5188 134.84 64.5926C135.307 65.7447 137.591 70.0401 138.589 70.1557C138.985 70.2019 140.385 69.5796 142.619 68.0871C144.445 66.8665 146.076 65.566 146.496 64.9953C147.37 63.8076 147.773 62.1631 147.777 62.1471C147.81 62.0111 147.946 61.9275 148.082 61.9604C148.218 61.9933 148.302 62.1293 148.269 62.2653C148.252 62.3364 147.839 64.0237 146.903 65.2958C146.369 66.022 144.453 67.4701 142.9 68.5084C141.677 69.3272 139.535 70.6659 138.622 70.6659Z" fill="#33184B"/>
<path d="M130.297 55.2897C130.297 55.2897 136.981 58.0241 141.741 54.783C141.741 54.783 142.956 59.0366 145.184 60.1505C145.184 60.1505 143.665 57.6187 144.273 55.5928L148.703 58.0792C148.703 58.0792 150.248 59.762 152.83 60.1078C152.83 60.1078 157.51 57.6205 156.881 53.2131C156.324 49.3141 148.678 42.1741 142.196 43.2879C135.715 44.4027 128.17 47.1878 130.297 55.2897Z" fill="#7E1030"/>
<path d="M144.348 55.8293C144.348 55.8293 144.897 52.3286 147.722 53.3704C150.547 54.4114 150.112 58.1939 145.776 60.1674L144.348 55.8293Z" fill="#FFBF81"/>
<path d="M147.063 57.9325C146.963 57.9325 146.869 57.873 146.829 57.7743C146.774 57.6578 146.246 57.5049 145.763 57.4667C145.642 57.4569 145.545 57.3636 145.532 57.2436C145.517 57.1236 145.59 57.0107 145.705 56.9733C146.86 56.5991 146.8 54.9803 146.799 54.9634C146.793 54.8239 146.901 54.7056 147.041 54.6994C147.177 54.6941 147.299 54.8007 147.305 54.9412C147.309 55.0088 147.357 56.3413 146.521 57.0818C146.857 57.1716 147.193 57.3254 147.298 57.5849C147.35 57.7147 147.288 57.8623 147.158 57.9147C147.127 57.9272 147.095 57.9325 147.063 57.9325Z" fill="#33184B"/>
<path d="M152.83 60.3609C152.82 60.3609 152.81 60.36 152.801 60.3591C152.698 60.3476 150.271 60.0489 148.657 58.5252C148.556 58.4292 148.55 58.2692 148.646 58.167C148.742 58.0648 148.902 58.0612 149.005 58.1563C150.334 59.4115 152.343 59.7769 152.776 59.8435C155.094 58.4248 156.325 57.0638 156.649 55.5641C156.947 54.1827 156.469 52.755 155.66 51.0376C154.113 47.7538 148.309 44.4522 148.25 44.4193C148.242 44.4149 146.937 43.7277 144.726 43.5108C142.686 43.3108 139.433 43.4833 135.525 45.4381C132.41 46.9955 130.625 49.113 130.218 51.7319C129.961 53.3898 130.365 54.7232 130.494 55.0903C130.959 55.2566 132.909 55.9099 135.199 56.0486C138.663 56.2584 141.22 55.2539 142.802 53.0635C142.884 52.9497 143.042 52.9248 143.156 53.0066C143.269 53.0884 143.295 53.2466 143.213 53.3604C141.545 55.6708 138.758 56.7749 135.157 56.5535C132.465 56.3882 130.298 55.5597 130.207 55.5241C130.142 55.4992 130.091 55.4486 130.065 55.3855C130.037 55.3188 129.395 53.7391 129.719 51.6545C130.017 49.7362 131.227 47.0213 135.3 44.9856C139.33 42.9703 142.694 42.7997 144.806 43.0103C147.109 43.2406 148.441 43.9464 148.496 43.9758C148.745 44.1162 154.505 47.392 156.12 50.8225C157.641 54.052 158.453 56.9962 152.963 60.3245C152.921 60.3485 152.876 60.3609 152.83 60.3609Z" fill="#33184B"/>
<path d="M145.184 60.4034C145.147 60.4034 145.108 60.3954 145.073 60.3776C143.032 59.3837 141.371 55.1425 141.301 54.963C141.25 54.8323 141.315 54.6856 141.446 54.6358C141.576 54.5852 141.723 54.6501 141.773 54.7807C141.787 54.8172 143.018 57.9614 144.556 59.3953C144.226 58.557 143.85 57.244 144.095 56.0066C144.122 55.8137 144.512 53.3353 146.524 53.0153C147.424 52.8731 148.62 53.194 149.268 54.2331C149.734 54.9808 150.214 56.6618 148.196 59.5269C148.115 59.6415 147.957 59.6682 147.843 59.5882C147.728 59.5073 147.701 59.35 147.781 59.2353C149.63 56.6093 149.237 55.1417 148.837 54.5007C148.316 53.6633 147.313 53.4029 146.604 53.5158C144.928 53.7816 144.599 56.0599 144.595 56.0822C144.594 56.0875 144.594 56.0928 144.593 56.0982C144.232 57.9099 145.392 60.006 145.404 60.0264C145.459 60.1233 145.443 60.2434 145.368 60.3243C145.319 60.3758 145.252 60.4034 145.184 60.4034Z" fill="#33184B"/>
<path d="M133.133 83.2407C133.133 83.2407 128.274 95.2656 128.575 97.5209C129.183 102.079 133.841 104.104 136.778 100.661L133.133 83.2407Z" fill="#97133B"/>
<path d="M136.901 105.578C136.782 105.578 136.677 105.494 136.653 105.372L135.976 101.817C134.9 102.639 133.418 102.86 132.003 102.382C130.081 101.734 128.724 99.9485 128.376 97.6079C127.997 95.0673 132.74 80.1027 132.942 79.4671C132.985 79.3337 133.127 79.26 133.26 79.3026C133.394 79.3453 133.467 79.4875 133.425 79.6209C133.376 79.7755 128.515 95.1073 128.877 97.5341C129.197 99.6836 130.426 101.317 132.166 101.903C133.557 102.373 135.013 102.087 135.967 101.158C136.034 101.094 136.131 101.07 136.22 101.098C136.309 101.126 136.375 101.2 136.392 101.292L137.151 105.277C137.177 105.415 137.087 105.547 136.949 105.573C136.933 105.577 136.917 105.578 136.901 105.578Z" fill="#33184B"/>
<path d="M144.349 100.714C141.487 100.714 139.86 99.0394 139.785 98.9603C139.689 98.859 139.693 98.699 139.794 98.6021C139.895 98.5061 140.055 98.5096 140.151 98.611C140.177 98.6376 142.044 100.538 145.204 100.154C148.354 99.7728 149.299 97.8936 149.338 97.8136C149.399 97.6882 149.55 97.6349 149.675 97.6953C149.801 97.7558 149.854 97.906 149.795 98.0323C149.752 98.122 148.706 100.24 145.264 100.656C144.947 100.697 144.641 100.714 144.349 100.714Z" fill="#33184B"/>
<path d="M164.138 101.761C164.03 101.761 163.931 101.693 163.897 101.585C163.891 101.565 163.235 99.5587 161.827 98.8075C160.451 98.0732 158.744 98.9986 158.726 99.0084C158.652 99.0493 158.562 99.0502 158.488 99.012C158.413 98.9737 158.361 98.9 158.352 98.8164C158.35 98.8013 158.144 97.235 156.787 96.6927C155.398 96.1371 153.774 96.9771 153.758 96.9851C153.68 97.026 153.585 97.0234 153.51 96.978C153.434 96.9318 153.387 96.85 153.387 96.7611C153.386 96.6989 153.358 95.2117 151.737 94.6721C150.051 94.1103 148.889 94.8614 148.877 94.8686C148.761 94.9459 148.603 94.9139 148.526 94.7974C148.449 94.681 148.481 94.5236 148.597 94.4463C148.652 94.409 149.979 93.552 151.897 94.1912C153.33 94.6685 153.734 95.7984 153.848 96.3878C154.445 96.1433 155.755 95.7344 156.975 96.2215C158.202 96.7131 158.64 97.8465 158.786 98.4172C159.398 98.1532 160.809 97.691 162.064 98.3604C163.655 99.2093 164.349 101.341 164.378 101.432C164.421 101.565 164.347 101.707 164.213 101.75C164.189 101.758 164.163 101.761 164.138 101.761Z" fill="#33184B"/>
<path d="M129.21 92.7919C129.221 92.7474 129.234 92.703 129.246 92.6594C128.869 92.7412 128.549 92.8541 128.328 92.9448C128.214 92.3554 127.809 91.2255 126.376 90.7482C124.458 90.109 123.132 90.9668 123.077 91.0033C122.96 91.0806 122.928 91.238 123.006 91.3544C123.083 91.4709 123.24 91.5029 123.357 91.4255C123.368 91.4175 124.53 90.6664 126.216 91.2291C127.837 91.7696 127.865 93.2559 127.866 93.3181C127.866 93.407 127.913 93.4888 127.989 93.535C128.065 93.5813 128.16 93.5839 128.238 93.5421C128.245 93.5377 128.602 93.3537 129.12 93.2141C129.147 93.0683 129.178 92.9252 129.21 92.7919Z" fill="#33184B"/>
<path d="M89.1144 119.112H83.4429V206.006H89.1144V119.112Z" fill="#EBEEF3"/>
<path d="M89.1133 206.258H83.4418C83.3023 206.258 83.1885 206.146 83.1885 206.005V119.112C83.1885 118.972 83.3023 118.858 83.4418 118.858H89.1133C89.2529 118.858 89.3667 118.972 89.3667 119.112V206.005C89.3667 206.146 89.2538 206.258 89.1133 206.258ZM83.6952 205.753H88.86V119.366H83.6952V205.753Z" fill="#33184B"/>
<path d="M70.9287 209.921V205.175C70.9287 203.953 71.919 202.963 73.1404 202.963H99.4178C100.639 202.963 101.63 203.953 101.63 205.175V209.921C101.63 211.142 100.639 212.132 99.4178 212.132H73.1404C71.919 212.132 70.9287 211.142 70.9287 209.921Z" fill="#AABEBF"/>
<path d="M99.1093 212.386H73.4479C71.9189 212.386 70.6753 211.142 70.6753 209.613V205.483C70.6753 203.954 71.9189 202.71 73.4479 202.71H99.1093C100.638 202.71 101.882 203.954 101.882 205.483V209.613C101.882 211.142 100.638 212.386 99.1093 212.386ZM73.4479 203.216C72.1981 203.216 71.182 204.233 71.182 205.482V209.612C71.182 210.862 72.199 211.878 73.4479 211.878H99.1093C100.359 211.878 101.375 210.861 101.375 209.612V205.482C101.375 204.232 100.358 203.216 99.1093 203.216H73.4479Z" fill="#33184B"/>
<path d="M36.6904 120.394V116.762C36.6904 115.541 37.6807 114.55 38.9021 114.55H133.655C134.876 114.55 135.866 115.541 135.866 116.762V120.394C135.866 121.616 134.876 122.606 133.655 122.606H38.9021C37.6807 122.606 36.6904 121.616 36.6904 120.394Z" fill="#AABEBF"/>
<path d="M133.347 122.859H39.2097C37.6807 122.859 36.437 121.616 36.437 120.087V117.07C36.437 115.542 37.6807 114.298 39.2097 114.298H133.347C134.876 114.298 136.12 115.542 136.12 117.07V120.087C136.12 121.616 134.876 122.859 133.347 122.859ZM39.2097 114.804C37.9598 114.804 36.9437 115.821 36.9437 117.07V120.086C36.9437 121.336 37.9607 122.352 39.2097 122.352H133.347C134.597 122.352 135.613 121.335 135.613 120.086V117.07C135.613 115.82 134.596 114.804 133.347 114.804H39.2097Z" fill="#33184B"/>
<path d="M131.564 57.872C131.134 57.872 128.674 57.7485 128.475 54.9527C128.266 52.0272 130.033 50.3942 130.109 50.3257C130.213 50.2315 130.373 50.2404 130.466 50.3435C130.559 50.4475 130.551 50.6066 130.448 50.7008C130.431 50.716 128.788 52.2458 128.98 54.9163C129.163 57.4738 131.5 57.3707 131.599 57.3653C131.743 57.3582 131.859 57.464 131.867 57.6036C131.875 57.7431 131.768 57.8631 131.629 57.8702C131.625 57.8711 131.603 57.872 131.564 57.872Z" fill="#33184B"/>
<path d="M147.703 73.0525C146.529 73.0525 145.856 72.3236 145.572 71.9173C145.21 72.1556 144.476 72.4809 143.516 72.0818C143.156 71.9316 142.908 71.6835 142.783 71.3457C142.614 70.8924 142.712 70.3732 142.821 70.0221C142.692 70.0105 142.566 69.9732 142.446 69.9119C141.921 69.6407 141.712 68.9714 141.703 68.9438C141.662 68.8105 141.738 68.6682 141.871 68.6273C142.004 68.5864 142.146 68.662 142.187 68.7953C142.229 68.9331 142.402 69.3207 142.679 69.4629C142.813 69.5314 142.96 69.5376 143.128 69.4816C143.225 69.4496 143.332 69.4781 143.399 69.5563C143.466 69.6336 143.48 69.7439 143.435 69.8354C143.431 69.8425 143.052 70.6195 143.257 71.1715C143.332 71.3751 143.481 71.52 143.71 71.6151C144.746 72.0462 145.431 71.3929 145.461 71.3653C145.519 71.3084 145.603 71.2826 145.684 71.2968C145.765 71.312 145.834 71.3635 145.869 71.4382C145.894 71.4924 146.526 72.7778 148.129 72.5112C149.701 72.2489 149.74 71.28 149.741 71.2391C149.743 71.1502 149.792 71.0675 149.869 71.0231C149.946 70.9795 150.041 70.9768 150.119 71.0213C150.134 71.0293 151.648 71.8587 153.027 71.2151C153.414 71.0346 153.659 70.7901 153.756 70.4879C153.92 69.9794 153.626 69.4478 153.623 69.4425C153.571 69.3509 153.581 69.2371 153.648 69.1571C153.715 69.0762 153.824 69.0442 153.923 69.078C153.939 69.0834 155.601 69.6194 156.389 68.7438C156.483 68.6398 156.643 68.6318 156.747 68.7251C156.851 68.8185 156.859 68.9785 156.765 69.0825C156.055 69.871 154.901 69.7999 154.25 69.6781C154.316 69.943 154.351 70.287 154.24 70.6381C154.099 71.0817 153.763 71.4302 153.242 71.6738C152.015 72.2462 150.752 71.8524 150.181 71.6106C150.039 72.0587 149.596 72.7805 148.214 73.0107C148.034 73.0383 147.864 73.0525 147.703 73.0525Z" fill="#33184B"/>
<path d="M154.307 66.3034C154.193 66.3034 154.09 66.2261 154.061 66.1114L152.585 60.1687C152.551 60.0327 152.634 59.8958 152.77 59.862C152.905 59.8283 153.043 59.9109 153.076 60.047L154.553 65.9896C154.587 66.1256 154.504 66.2625 154.368 66.2963C154.347 66.3016 154.327 66.3034 154.307 66.3034Z" fill="#33184B"/>
<path d="M60.1346 103.691C63.8703 103.691 66.8987 100.735 66.8987 97.0891C66.8987 93.4427 63.8703 90.4868 60.1346 90.4868C56.399 90.4868 53.3706 93.4427 53.3706 97.0891C53.3706 100.735 56.399 103.691 60.1346 103.691Z" fill="#7F1030"/>
<path d="M60.1347 103.691C62.803 103.691 64.9661 100.735 64.9661 97.0891C64.9661 93.4427 62.803 90.4868 60.1347 90.4868C57.4663 90.4868 55.3032 93.4427 55.3032 97.0891C55.3032 100.735 57.4663 103.691 60.1347 103.691Z" fill="#93ADAD"/>
<path d="M60.1344 103.691C60.9052 103.691 61.5301 100.735 61.5301 97.0891C61.5301 93.4427 60.9052 90.4868 60.1344 90.4868C59.3636 90.4868 58.7388 93.4427 58.7388 97.0891C58.7388 100.735 59.3636 103.691 60.1344 103.691Z" fill="#AABEBF"/>
<path d="M60.1351 103.691C63.8708 103.691 66.8992 100.735 66.8992 97.0891C66.8992 93.4427 63.8708 90.4868 60.1351 90.4868C56.3995 90.4868 53.3711 93.4427 53.3711 97.0891C53.3711 100.735 56.3995 103.691 60.1351 103.691Z" fill="#7F1030"/>
<path d="M60.1347 103.945C56.2659 103.945 53.1182 100.869 53.1182 97.089C53.1182 93.3083 56.2659 90.2334 60.1347 90.2334C64.0034 90.2334 67.1512 93.3092 67.1512 97.089C67.1512 100.869 64.0043 103.945 60.1347 103.945ZM60.1347 90.7392C56.5451 90.7392 53.624 93.5874 53.624 97.089C53.624 100.59 56.5442 103.439 60.1347 103.439C63.7251 103.439 66.6454 100.591 66.6454 97.089C66.6454 93.5874 63.7243 90.7392 60.1347 90.7392Z" fill="#33184B"/>
<path d="M60.135 103.691C62.6403 103.691 64.6713 100.735 64.6713 97.0891C64.6713 93.4427 62.6403 90.4868 60.135 90.4868C57.6296 90.4868 55.5986 93.4427 55.5986 97.0891C55.5986 100.735 57.6296 103.691 60.135 103.691Z" fill="#93ADAD"/>
<path d="M60.1349 103.691C60.9057 103.691 61.5306 100.735 61.5306 97.0891C61.5306 93.4427 60.9057 90.4868 60.1349 90.4868C59.3641 90.4868 58.7393 93.4427 58.7393 97.0891C58.7393 100.735 59.3641 103.691 60.1349 103.691Z" fill="#AABEBF"/>
<path d="M64.0631 87.4332C63.8568 87.2829 63.4355 87.4678 62.9243 87.8883C62.8497 87.1709 62.6843 86.6882 62.4487 86.6144C62.1678 86.5264 61.8514 87.0367 61.5927 87.8928C61.0042 86.9843 60.4868 86.4215 60.2335 86.4758C60.0299 86.5193 60.0335 86.9514 60.2024 87.619C59.5783 87.1567 59.1205 86.93 58.9685 87.0465C58.7952 87.1798 59.0565 87.7319 59.6085 88.4937C58.7116 88.2199 58.108 88.1541 58.0395 88.3621C57.972 88.5684 58.4431 89.0013 59.2405 89.5178C58.4173 89.6253 57.9222 89.8129 57.9711 90.0494C58.0209 90.2858 58.6103 90.5214 59.4992 90.7018C58.9027 91.1641 58.6049 91.5677 58.7614 91.7846C58.9027 91.9802 59.3872 91.9864 60.0583 91.8397C59.8317 92.43 59.7917 92.8664 59.9926 93.0131C60.1988 93.1634 60.6202 92.9785 61.1313 92.558C61.206 93.2754 61.3713 93.7581 61.6069 93.831C61.8878 93.919 62.2043 93.4087 62.463 92.5526C63.0515 93.4612 63.5688 94.0239 63.8222 93.9696C64.0257 93.9261 64.0222 93.494 63.8533 92.8264C64.4773 93.2887 64.9351 93.5154 65.0872 93.3989C65.2605 93.2656 64.9992 92.7135 64.4471 91.9517C65.3441 92.2255 65.9477 92.2913 66.0161 92.0833C66.0837 91.877 65.6125 91.4441 64.8151 90.9276C65.6383 90.8201 66.1334 90.6325 66.0846 90.396C66.0348 90.1596 65.4454 89.924 64.5565 89.7436C65.1529 89.2813 65.4507 88.8777 65.2943 88.6608C65.1529 88.4652 64.6685 88.459 63.9973 88.6057C64.224 88.0172 64.2631 87.5798 64.0631 87.4332Z" fill="#97133B"/>
<path d="M65.7713 114.535H54.4985L51.2778 99.6118H68.992L65.7713 114.535Z" fill="#720D2D"/>
<path d="M65.7716 114.788H54.4988C54.3797 114.788 54.2766 114.704 54.2517 114.588L51.031 99.6651C51.015 99.5904 51.0337 99.5122 51.0817 99.4526C51.1297 99.3931 51.2026 99.3584 51.279 99.3584H68.9932C69.0696 99.3584 69.1425 99.3931 69.1905 99.4526C69.2385 99.5122 69.2572 99.5904 69.2412 99.6651L66.0205 114.588C65.9938 114.704 65.8907 114.788 65.7716 114.788ZM54.7033 114.281H65.5671L68.6785 99.8651H51.591L54.7033 114.281Z" fill="#33184B"/>
</svg>
