<svg width="40" height="40" viewBox="0 0 40 40" fill="none" xmlns="http://www.w3.org/2000/svg">
<g clip-path="url(#clip0_487_431)">
<path d="M23.0259 27.101C23.0586 27.1069 23.0919 27.1098 23.1251 27.1096C23.2632 27.1094 23.3967 27.0604 23.5022 26.9714C23.6077 26.8824 23.6783 26.7589 23.7017 26.6229L24.7048 20.7682C24.7276 20.6166 24.6901 20.4622 24.6003 20.338C24.5105 20.2137 24.3757 20.1296 24.2246 20.1037C24.0736 20.0777 23.9184 20.112 23.7923 20.1991C23.6662 20.2862 23.5793 20.4193 23.5501 20.5698L22.547 26.4245C22.534 26.5003 22.5361 26.578 22.5531 26.6531C22.5701 26.7282 22.6018 26.7991 22.6463 26.862C22.6907 26.9248 22.7472 26.9782 22.8123 27.0193C22.8774 27.0603 22.95 27.0881 23.0259 27.101Z" fill="white"/>
<path d="M39.4141 33.3594H36.9922V30.8203C36.9949 28.0671 36.2195 25.3692 34.7555 23.0375C34.6726 22.9059 34.5408 22.8127 34.3892 22.7782C34.2376 22.7438 34.0784 22.771 33.9469 22.8539C33.8153 22.9368 33.722 23.0685 33.6876 23.2202C33.6532 23.3718 33.6804 23.5309 33.7633 23.6625C35.1093 25.8071 35.8224 28.2883 35.8203 30.8203V33.3594H30.5188L29.55 31.4219C29.3726 31.0641 29.0985 30.7633 28.7588 30.5534C28.4191 30.3435 28.0274 30.233 27.6281 30.2344H12.3719C11.9726 30.233 11.5809 30.3435 11.2412 30.5534C10.9015 30.7633 10.6274 31.0641 10.45 31.4219L9.48125 33.3594H4.17969V30.8203C4.17929 27.9483 5.09624 25.1511 6.79688 22.8367L7.85234 25.7352C7.93119 25.9522 8.05203 26.1515 8.20797 26.3218C8.3639 26.4921 8.55187 26.6299 8.76112 26.7275C8.97038 26.8251 9.19681 26.8805 9.42748 26.8905C9.65815 26.9005 9.88854 26.865 10.1055 26.7859L10.8398 26.5188C11.2778 26.3592 11.6345 26.0322 11.8314 25.6096C12.0284 25.1871 12.0494 24.7036 11.8898 24.2656L10.1914 19.5984C11.5789 18.6699 13.1288 18.011 14.7602 17.6563L16.2977 26.6219C16.3209 26.7582 16.3916 26.8819 16.4972 26.9711C16.6029 27.0603 16.7367 27.1093 16.875 27.1094C16.9085 27.1096 16.942 27.1067 16.975 27.1008C17.1281 27.0744 17.2645 26.9884 17.3541 26.8615C17.4438 26.7346 17.4794 26.5773 17.4531 26.4242L15.8125 16.8688L15.5781 15.4977C15.5341 15.245 15.546 14.9857 15.6128 14.7381C15.6796 14.4904 15.7997 14.2604 15.9648 14.0641C16.1299 13.8678 16.336 13.71 16.5685 13.6018C16.801 13.4935 17.0544 13.4375 17.3109 13.4375H20.1656C20.321 13.4375 20.4701 13.3758 20.5799 13.2659C20.6898 13.156 20.7516 13.007 20.7516 12.8516C20.7516 12.6962 20.6898 12.5471 20.5799 12.4372C20.4701 12.3274 20.321 12.2656 20.1656 12.2656H17.3109C16.884 12.2652 16.4622 12.358 16.0749 12.5377C15.6876 12.7174 15.3443 12.9795 15.0689 13.3057C14.7936 13.632 14.5929 14.0145 14.4808 14.4264C14.3688 14.8384 14.3481 15.2699 14.4203 15.6906L14.5594 16.5016C12.8626 16.8698 11.2444 17.5356 9.77969 18.468L9.48828 17.6563C9.32835 17.2185 9.00134 16.862 8.57896 16.6651C8.15658 16.4681 7.67331 16.4466 7.23516 16.6055L6.50078 16.875C6.06291 17.0347 5.70636 17.3618 5.50948 17.7843C5.31259 18.2067 5.29148 18.6901 5.45078 19.1281L6.32812 21.5359C4.18172 24.1541 3.00844 27.4348 3.00781 30.8203V33.3594H0.585938C0.430537 33.3594 0.281502 33.4211 0.171617 33.531C0.0617325 33.6409 0 33.7899 0 33.9453L0 37.0703C0 37.2257 0.0617325 37.3748 0.171617 37.4846C0.281502 37.5945 0.430537 37.6563 0.585938 37.6563H0.664062V39.4141C0.664062 39.5695 0.725795 39.7185 0.83568 39.8284C0.945564 39.9383 1.0946 40 1.25 40H38.75C38.9054 40 39.0544 39.9383 39.1643 39.8284C39.2742 39.7185 39.3359 39.5695 39.3359 39.4141V37.6563H39.4141C39.5695 37.6563 39.7185 37.5945 39.8284 37.4846C39.9383 37.3748 40 37.2257 40 37.0703V33.9453C40 33.7899 39.9383 33.6409 39.8284 33.531C39.7185 33.4211 39.5695 33.3594 39.4141 33.3594ZM6.57109 18.2813C6.60336 18.2114 6.64919 18.1486 6.70592 18.0965C6.76265 18.0445 6.82915 18.0043 6.90156 17.9781L7.63594 17.7109C7.70002 17.6876 7.76772 17.6757 7.83594 17.6758C7.95625 17.6758 8.07366 17.7127 8.1723 17.7816C8.27095 17.8505 8.34606 17.948 8.3875 18.0609L10.7922 24.668C10.8453 24.8141 10.8383 24.9752 10.7727 25.1162C10.707 25.2571 10.5882 25.3662 10.4422 25.4195L9.70781 25.6867C9.56161 25.7394 9.40051 25.732 9.2597 25.6663C9.11889 25.6006 9.0098 25.4818 8.95625 25.3359L7.54141 21.4461L6.55156 18.7273C6.49885 18.5819 6.50587 18.4215 6.57109 18.2813ZM11.4984 31.9477C11.5789 31.7848 11.7034 31.6478 11.8577 31.5521C12.0121 31.4564 12.1902 31.4059 12.3719 31.4063H27.6281C27.8096 31.4057 27.9876 31.456 28.142 31.5514C28.2963 31.6468 28.4209 31.7835 28.5016 31.9461L29.2086 33.3594H10.7922L11.4984 31.9477ZM1.83594 38.8281V37.6563H4.375C4.5304 37.6563 4.67944 37.5945 4.78932 37.4846C4.89921 37.3748 4.96094 37.2257 4.96094 37.0703C4.96094 36.9149 4.89921 36.7659 4.78932 36.656C4.67944 36.5461 4.5304 36.4844 4.375 36.4844H1.17188V34.5313H38.8281V36.4844H35.625C35.4696 36.4844 35.3206 36.5461 35.2107 36.656C35.1008 36.7659 35.0391 36.9149 35.0391 37.0703C35.0391 37.2257 35.1008 37.3748 35.2107 37.4846C35.3206 37.5945 35.4696 37.6563 35.625 37.6563H38.1641V38.8281H1.83594Z" fill="white"/>
<path d="M28.5938 36.4844H11.4062C11.2508 36.4844 11.1018 36.5461 10.9919 36.656C10.882 36.7659 10.8203 36.9149 10.8203 37.0703C10.8203 37.2257 10.882 37.3747 10.9919 37.4846C11.1018 37.5945 11.2508 37.6562 11.4062 37.6562H28.5938C28.7492 37.6562 28.8982 37.5945 29.0081 37.4846C29.118 37.3747 29.1797 37.2257 29.1797 37.0703C29.1797 36.9149 29.118 36.7659 29.0081 36.656C28.8982 36.5461 28.7492 36.4844 28.5938 36.4844Z" fill="white"/>
<path d="M28.3766 26.5189L29.1101 26.7861C29.3034 26.8565 29.5075 26.8928 29.7133 26.8931C30.0736 26.892 30.4249 26.7805 30.7199 26.5737C31.015 26.3668 31.2395 26.0745 31.3633 25.7361L31.5976 25.0908C31.6509 24.9447 31.6439 24.7834 31.5783 24.6425C31.5127 24.5015 31.3937 24.3924 31.2476 24.3392C31.1016 24.2859 30.9403 24.2929 30.7994 24.3585C30.6584 24.4242 30.5493 24.5431 30.4961 24.6892L30.2617 25.3353C30.2355 25.4076 30.1952 25.474 30.1432 25.5307C30.0913 25.5875 30.0286 25.6334 29.9588 25.6658C29.8891 25.6983 29.8136 25.7166 29.7367 25.7198C29.6599 25.723 29.5831 25.711 29.5109 25.6845L28.7766 25.4173C28.7042 25.3911 28.6378 25.3508 28.5811 25.2988C28.5244 25.2469 28.4785 25.1842 28.446 25.1144C28.4136 25.0447 28.3952 24.9692 28.392 24.8924C28.3888 24.8155 28.4008 24.7388 28.4273 24.6665L28.6758 23.9837C28.7288 23.8376 28.7217 23.6765 28.6559 23.5357C28.5901 23.3949 28.4711 23.286 28.325 23.2329C28.1789 23.1799 28.0177 23.1871 27.877 23.2528C27.7362 23.3186 27.6273 23.4376 27.5742 23.5837L27.3266 24.2658C27.2475 24.4826 27.2119 24.713 27.2219 24.9436C27.2318 25.1742 27.2871 25.4007 27.3847 25.6099C27.4822 25.8191 27.62 26.0071 27.7902 26.1631C27.9603 26.3191 28.1596 26.44 28.3766 26.5189Z" fill="white"/>
<path d="M30.3123 12.3502C30.258 12.4046 30.1934 12.4478 30.1224 12.4773C30.0513 12.5067 29.9752 12.5219 29.8982 12.5219C29.8213 12.5219 29.7452 12.5067 29.6741 12.4773C29.6031 12.4478 29.5385 12.4046 29.4842 12.3502L28.0107 10.8775L27.1357 11.7518L29.4607 14.0768C29.5768 14.1928 29.7342 14.258 29.8982 14.258C30.0623 14.258 30.2197 14.1928 30.3357 14.0768L34.5061 9.90645L33.6311 9.03223L30.3123 12.3502Z" fill="white"/>
<path d="M39.6281 3.41154L31.0344 0.040444C30.8968 -0.0134813 30.7439 -0.0134813 30.6063 0.040444L22.0125 3.41154C21.9027 3.45474 21.8085 3.53003 21.7422 3.62759C21.6758 3.72515 21.6404 3.84044 21.6406 3.95841V9.85919C21.6406 12.698 22.4961 15.4709 24.0954 17.8163C25.6946 20.1617 27.9636 21.9708 30.6063 23.0076C30.7438 23.0618 30.8968 23.0618 31.0344 23.0076C33.6773 21.9707 35.9464 20.1614 37.5457 17.8157C39.145 15.4699 40.0003 12.6967 40 9.85763V3.95685C39.9999 3.83914 39.9643 3.72419 39.898 3.62694C39.8317 3.52969 39.7377 3.45464 39.6281 3.41154ZM35.7484 10.3209L31.1641 14.9053C30.828 15.2409 30.3726 15.4293 29.8977 15.4293C29.4228 15.4293 28.9673 15.2409 28.6313 14.9053L25.8922 12.1662C25.7826 12.0561 25.7211 11.9071 25.7211 11.7518C25.7211 11.5964 25.7826 11.4474 25.8922 11.3373L27.5961 9.63419C27.6505 9.57974 27.7151 9.53655 27.7862 9.50708C27.8573 9.47761 27.9336 9.46244 28.0105 9.46244C28.0875 9.46244 28.1638 9.47761 28.2349 9.50708C28.306 9.53655 28.3706 9.57974 28.425 9.63419L29.8977 11.1068L33.2156 7.78888C33.27 7.73443 33.3346 7.69124 33.4058 7.66177C33.4769 7.6323 33.5531 7.61713 33.6301 7.61713C33.7071 7.61713 33.7833 7.6323 33.8544 7.66177C33.9255 7.69124 33.9901 7.73443 34.0445 7.78888L35.7484 9.49201C35.858 9.6021 35.9195 9.75112 35.9195 9.90646C35.9195 10.0618 35.858 10.2108 35.7484 10.3209Z" fill="white"/>
</g>
<defs>
<clipPath id="clip0_487_431">
<rect width="40" height="40" fill="white"/>
</clipPath>
</defs>
</svg>
