<svg width="46" height="46" viewBox="0 0 46 46" fill="none" xmlns="http://www.w3.org/2000/svg">
<g clip-path="url(#clip0_487_423)" filter="url(#filter0_d_487_423)">
<path d="M41.1474 24.9619C41.5426 24.198 41.7492 23.3507 41.7502 22.4907V20.4113C41.749 19.1677 41.3171 17.9629 40.5278 17.0019L34.3066 9.44257C34.0259 9.10236 33.6246 8.88375 33.1865 8.83243C32.7484 8.7811 32.3074 8.90101 31.9557 9.16713C31.6039 9.43324 31.3686 9.82497 31.2988 10.2605C31.229 10.696 31.3302 11.1417 31.5812 11.5043L31.7504 11.7482C31.4936 11.8607 31.2647 12.0286 31.0802 12.2398C30.8957 12.451 30.7601 12.7003 30.6831 12.97C30.6062 13.2396 30.5897 13.523 30.6349 13.7997C30.6802 14.0765 30.786 14.3399 30.9448 14.571L31.6457 15.5839C31.3699 15.7114 31.1269 15.9 30.935 16.1355C30.7431 16.371 30.6074 16.6472 30.5383 16.943C30.4691 17.2388 30.4684 17.5465 30.536 17.8426C30.6037 18.1388 30.7379 18.4156 30.9287 18.652L33.5544 21.915L33.104 22.3544C32.7877 22.6655 32.5364 23.0361 32.3644 23.445C32.1924 23.8538 32.1032 24.2927 32.102 24.7363V26.6311C32.1012 27.1323 32.2138 27.6273 32.4315 28.0789C32.6491 28.5304 32.9662 28.9269 33.3588 29.2385V30.2287H32.9926C32.8469 30.2287 32.7072 30.2866 32.6042 30.3896C32.5012 30.4926 32.4433 30.6323 32.4433 30.778V37.2006C32.4433 37.3463 32.5012 37.486 32.6042 37.5891C32.7072 37.6921 32.8469 37.7499 32.9926 37.7499H41.2009C41.3466 37.7499 41.4863 37.6921 41.5893 37.5891C41.6923 37.486 41.7502 37.3463 41.7502 37.2006V32.9335C41.7502 32.7879 41.6923 32.6481 41.5893 32.5451C41.4863 32.4421 41.3466 32.3842 41.2009 32.3842H40.5358V30.7795C40.5358 30.6338 40.478 30.4941 40.3749 30.3911C40.2719 30.288 40.1322 30.2302 39.9865 30.2302H39.9191V27.3312L41.1474 24.9619ZM31.9445 12.9208C32.0701 12.7966 32.2335 12.7177 32.4089 12.6967L35.0361 16.4848L34.9628 16.5017C34.598 16.5945 34.2706 16.7976 34.0253 17.0832L31.8493 13.9462C31.7417 13.7915 31.6923 13.6038 31.7097 13.4162C31.7271 13.2285 31.8103 13.0531 31.9445 12.9208ZM31.8435 16.7668C31.9656 16.6406 32.1227 16.5538 32.2946 16.5178L33.5734 18.3649L33.6635 20.2956L31.7893 17.9628C31.6504 17.7915 31.5793 17.5752 31.5893 17.3549C31.5992 17.1346 31.6897 16.9256 31.8435 16.7675V16.7668ZM40.6516 36.6513H33.5427V33.4829H40.6516V36.6513ZM33.5427 32.3842V31.3288H39.4372V32.3842H33.5427ZM34.4589 30.2302V28.9609C34.4591 28.8697 34.4365 28.7799 34.3931 28.6997C34.3497 28.6195 34.287 28.5515 34.2106 28.5017C33.9004 28.2987 33.6456 28.0216 33.4695 27.6953C33.2934 27.3691 33.2015 27.004 33.2021 26.6332V24.7377C33.2029 24.4404 33.2626 24.1462 33.3779 23.8721C33.4932 23.598 33.6617 23.3496 33.8737 23.1411L34.6794 22.3566C34.7347 22.3025 34.7779 22.2372 34.8062 22.1651C34.8345 22.093 34.8472 22.0158 34.8435 21.9384L34.6743 18.3137C34.6686 18.1652 34.7078 18.0185 34.7867 17.8926C34.8657 17.7667 34.9807 17.6675 35.1168 17.6079C35.2529 17.5483 35.4038 17.5311 35.5498 17.5585C35.6958 17.5859 35.8302 17.6566 35.9355 17.7614L35.9472 17.7717L35.956 17.7827C36.0074 17.8385 36.0501 17.9017 36.0827 17.9702L36.1457 18.1042C36.489 18.8338 36.7199 19.6112 36.8305 20.4099C36.8486 20.5412 36.9135 20.6617 37.0134 20.7489C37.1133 20.8361 37.2414 20.8843 37.374 20.8845C37.3985 20.8842 37.423 20.8823 37.4472 20.8786C37.5915 20.8588 37.7221 20.7825 37.8101 20.6664C37.8982 20.5503 37.9365 20.404 37.9167 20.2597C37.7906 19.351 37.5273 18.4667 37.1359 17.6369L37.0729 17.5021C36.9927 17.3317 36.8867 17.1746 36.7587 17.0363L36.7478 17.0253L32.4836 10.8781C32.3854 10.7488 32.3426 10.5859 32.3646 10.425C32.3865 10.2642 32.4715 10.1186 32.6008 10.0205C32.7301 9.92226 32.893 9.87944 33.0539 9.90142C33.2147 9.9234 33.3603 10.0084 33.4584 10.1376L39.6796 17.697C40.3071 18.4608 40.6505 19.4184 40.6516 20.4069V22.4863C40.6511 23.1702 40.4866 23.8441 40.1718 24.4514L38.8813 26.9416C38.8404 27.0198 38.8191 27.1068 38.819 27.195V30.228L34.4589 30.2302Z" fill="white"/>
<path d="M35.2358 35.6162H35.9836C36.1293 35.6162 36.2691 35.5583 36.3721 35.4553C36.4751 35.3523 36.533 35.2126 36.533 35.0669C36.533 34.9212 36.4751 34.7815 36.3721 34.6785C36.2691 34.5755 36.1293 34.5176 35.9836 34.5176H35.2358C35.0902 34.5176 34.9504 34.5755 34.8474 34.6785C34.7444 34.7815 34.6865 34.9212 34.6865 35.0669C34.6865 35.2126 34.7444 35.3523 34.8474 35.4553C34.9504 35.5583 35.0902 35.6162 35.2358 35.6162Z" fill="white"/>
<path d="M14.353 15.5839L15.054 14.571C15.2128 14.3399 15.3186 14.0765 15.3638 13.7997C15.409 13.523 15.3926 13.2396 15.3156 12.97C15.2386 12.7003 15.103 12.451 14.9185 12.2398C14.734 12.0286 14.5052 11.8607 14.2483 11.7482L14.4175 11.5043C14.6685 11.1417 14.7697 10.696 14.6999 10.2605C14.6302 9.82497 14.3948 9.43324 14.0431 9.16713C13.6913 8.90101 13.2503 8.7811 12.8123 8.83243C12.3742 8.88375 11.9729 9.10236 11.6921 9.44257L5.47241 17.0019C4.68311 17.9629 4.25115 19.1677 4.25 20.4113L4.25 22.4907C4.25095 23.3507 4.45763 24.198 4.85278 24.9619L6.08105 27.3312V30.2302H6.01221C5.86652 30.2302 5.7268 30.288 5.62378 30.3911C5.52076 30.4941 5.46289 30.6338 5.46289 30.7795V32.3842H4.79932C4.65363 32.3842 4.51391 32.4421 4.41089 32.5451C4.30787 32.6481 4.25 32.7879 4.25 32.9335V37.2006C4.25 37.3463 4.30787 37.486 4.41089 37.5891C4.51391 37.6921 4.65363 37.7499 4.79932 37.7499H13.0068C13.1525 37.7499 13.2922 37.6921 13.3953 37.5891C13.4983 37.486 13.5562 37.3463 13.5562 37.2006V30.7795C13.5562 30.6338 13.4983 30.4941 13.3953 30.3911C13.2922 30.288 13.1525 30.2302 13.0068 30.2302H12.6406V29.2399C13.0333 28.9283 13.3503 28.5319 13.568 28.0803C13.7857 27.6288 13.8983 27.1338 13.8975 26.6325V24.7377C13.8959 24.294 13.8062 23.855 13.6337 23.4461C13.4612 23.0373 13.2093 22.6667 12.8926 22.3559L12.4421 21.9165L15.0679 18.6535C15.2586 18.4171 15.3929 18.1402 15.4605 17.8441C15.5282 17.5479 15.5274 17.2402 15.4583 16.9444C15.3891 16.6486 15.2535 16.3725 15.0616 16.137C14.8697 15.9015 14.6266 15.7128 14.3508 15.5854L14.353 15.5839ZM14.0557 12.9208C14.1899 13.0531 14.2731 13.2285 14.2905 13.4162C14.3079 13.6038 14.2585 13.7915 14.1509 13.9462L11.9778 17.0847C11.7325 16.799 11.4051 16.596 11.0403 16.5031L10.967 16.4863L13.5913 12.7011C13.7662 12.7209 13.9295 12.7982 14.0557 12.9208ZM6.56299 31.3288H12.4575V32.3842H6.56299V31.3288ZM12.4575 36.6513H5.34863V33.4829H12.4575V36.6513ZM12.7981 26.6325C12.7987 27.0033 12.7068 27.3683 12.5307 27.6946C12.3546 28.0208 12.0998 28.298 11.7896 28.5009C11.7131 28.5508 11.6503 28.619 11.6069 28.6993C11.5636 28.7797 11.541 28.8696 11.5413 28.9609V30.2309H7.17969V27.1972C7.17968 27.109 7.15832 27.022 7.11743 26.9438L5.8269 24.4536C5.513 23.8469 5.349 23.1738 5.34863 22.4907V20.4113C5.34968 19.4228 5.69313 18.4652 6.32056 17.7014L12.5417 10.1376C12.6417 10.0146 12.7856 9.9351 12.943 9.91603C13.1004 9.89697 13.259 9.93979 13.3855 10.0355C13.5119 10.1311 13.5963 10.2722 13.6208 10.4288C13.6452 10.5855 13.6079 10.7455 13.5166 10.8752L9.25317 17.0224L9.24145 17.0334C9.1135 17.1717 9.00753 17.3288 8.92725 17.4992L8.86426 17.6369C8.47337 18.4667 8.21062 19.3511 8.08496 20.2597C8.06515 20.404 8.10349 20.5503 8.19153 20.6664C8.27958 20.7825 8.41012 20.8588 8.55444 20.8786C8.57869 20.8823 8.60316 20.8842 8.62769 20.8845C8.7603 20.8843 8.88837 20.8361 8.98826 20.7489C9.08815 20.6617 9.15311 20.5412 9.17114 20.4099C9.28167 19.6111 9.51256 18.8338 9.85596 18.1042L9.91894 17.9702C9.9516 17.9017 9.99431 17.8385 10.0457 17.7827L10.0544 17.7717L10.0662 17.7614C10.1712 17.6569 10.3052 17.5863 10.4508 17.5588C10.5963 17.5313 10.7468 17.5482 10.8827 17.6072C11.0186 17.6663 11.1337 17.7647 11.213 17.8899C11.2922 18.0151 11.3321 18.1612 11.3274 18.3093L11.1582 21.9384C11.1545 22.0158 11.1672 22.093 11.1955 22.1651C11.2237 22.2372 11.267 22.3025 11.3223 22.3566L12.1279 23.1411C12.3399 23.3496 12.5084 23.598 12.6237 23.8721C12.739 24.1462 12.7988 24.4404 12.7996 24.7377L12.7981 26.6325ZM14.2146 17.9628L12.3367 20.2963L12.4268 18.3657L13.7056 16.5185C13.8775 16.5546 14.0346 16.6413 14.1567 16.7675C14.311 16.9251 14.4022 17.1339 14.4128 17.3542C14.4235 17.5745 14.353 17.7911 14.2146 17.9628Z" fill="white"/>
<path d="M10.0166 35.6162H10.7644C10.9101 35.6162 11.0498 35.5583 11.1528 35.4553C11.2558 35.3523 11.3137 35.2126 11.3137 35.0669C11.3137 34.9212 11.2558 34.7815 11.1528 34.6785C11.0498 34.5755 10.9101 34.5176 10.7644 34.5176H10.0166C9.87091 34.5176 9.73119 34.5755 9.62818 34.6785C9.52516 34.7815 9.46729 34.9212 9.46729 35.0669C9.46729 35.2126 9.52516 35.3523 9.62818 35.4553C9.73119 35.5583 9.87091 35.6162 10.0166 35.6162Z" fill="white"/>
<path d="M22.6763 9.56299C22.6253 9.61403 22.5647 9.65453 22.498 9.68216C22.4313 9.70978 22.3599 9.724 22.2877 9.724C22.2156 9.724 22.1441 9.70978 22.0774 9.68216C22.0108 9.65453 21.9502 9.61403 21.8992 9.56299L20.8306 8.49438L20.29 9.03272L22.0164 10.759C22.0878 10.8304 22.1846 10.8704 22.2855 10.8704C22.3865 10.8704 22.4833 10.8304 22.5547 10.759L25.7041 7.60962L25.1658 7.07129L22.6763 9.56299Z" fill="white"/>
<path d="M29.5308 2.77083L23.2004 0.287916C23.0714 0.237361 22.9281 0.237361 22.7991 0.287916L16.4688 2.77083C16.3658 2.81133 16.2775 2.88191 16.2153 2.97337C16.1531 3.06483 16.1199 3.17292 16.1201 3.28352V7.62971C16.1203 9.7444 16.7576 11.81 17.949 13.5571C19.1404 15.3043 20.8305 16.6519 22.7991 17.4244C22.928 17.4752 23.0715 17.4752 23.2004 17.4244C25.169 16.6519 26.8591 15.3043 28.0505 13.5571C29.2419 11.81 29.8792 9.7444 29.8794 7.62971V3.28279C29.8794 3.17231 29.8462 3.06439 29.784 2.97307C29.7218 2.88176 29.6336 2.81128 29.5308 2.77083ZM26.8728 7.99592L23.3337 11.535C23.1964 11.6725 23.0333 11.7816 22.8538 11.856C22.6743 11.9304 22.4818 11.9687 22.2875 11.9687C22.0931 11.9687 21.9007 11.9304 21.7212 11.856C21.5416 11.7816 21.3786 11.6725 21.2412 11.535L19.1267 9.42048C19.0757 9.36947 19.0352 9.3089 19.0075 9.24223C18.9799 9.17556 18.9657 9.1041 18.9657 9.03193C18.9657 8.95977 18.9799 8.88831 19.0075 8.82164C19.0352 8.75497 19.0757 8.6944 19.1267 8.64338L20.4451 7.32869C20.496 7.27766 20.5565 7.23719 20.6231 7.20957C20.6897 7.18195 20.7611 7.16773 20.8333 7.16773C20.9054 7.16773 20.9768 7.18195 21.0434 7.20957C21.11 7.23719 21.1705 7.27766 21.2214 7.32869L22.29 8.39729L24.7803 5.90706C24.8312 5.85603 24.8917 5.81555 24.9583 5.78794C25.025 5.76032 25.0963 5.7461 25.1685 5.7461C25.2406 5.7461 25.312 5.76032 25.3786 5.78794C25.4452 5.81555 25.5057 5.85603 25.5566 5.90706L26.875 7.22542C26.926 7.27643 26.9665 7.337 26.9942 7.40367C27.0218 7.47034 27.036 7.5418 27.036 7.61397C27.036 7.68613 27.0218 7.75759 26.9942 7.82426C26.9665 7.89093 26.926 7.9515 26.875 8.00251L26.8728 7.99592Z" fill="white"/>
</g>
<defs>
<filter id="filter0_d_487_423" x="0.25" y="0.25" width="45.5" height="45.5" filterUnits="userSpaceOnUse" color-interpolation-filters="sRGB">
<feFlood flood-opacity="0" result="BackgroundImageFix"/>
<feColorMatrix in="SourceAlpha" type="matrix" values="0 0 0 0 0 0 0 0 0 0 0 0 0 0 0 0 0 0 127 0" result="hardAlpha"/>
<feOffset dy="4"/>
<feGaussianBlur stdDeviation="2"/>
<feComposite in2="hardAlpha" operator="out"/>
<feColorMatrix type="matrix" values="0 0 0 0 0 0 0 0 0 0 0 0 0 0 0 0 0 0 0.25 0"/>
<feBlend mode="normal" in2="BackgroundImageFix" result="effect1_dropShadow_487_423"/>
<feBlend mode="normal" in="SourceGraphic" in2="effect1_dropShadow_487_423" result="shape"/>
</filter>
<clipPath id="clip0_487_423">
<rect width="37.5" height="37.5" fill="white" transform="translate(4.25 0.25)"/>
</clipPath>
</defs>
</svg>
