<svg width="46" height="46" viewBox="0 0 46 46" fill="none" xmlns="http://www.w3.org/2000/svg">
<g clip-path="url(#clip0_487_408)" filter="url(#filter0_d_487_408)">
<path d="M40.8974 24.7119C41.2926 23.948 41.4992 23.1007 41.5002 22.2407V20.1613C41.499 18.9177 41.0671 17.7129 40.2778 16.7519L34.0566 9.19257C33.7759 8.85236 33.3746 8.63375 32.9365 8.58243C32.4984 8.5311 32.0574 8.65101 31.7057 8.91713C31.3539 9.18324 31.1186 9.57497 31.0488 10.0105C30.979 10.446 31.0802 10.8917 31.3312 11.2543L31.5004 11.4982C31.2436 11.6107 31.0147 11.7786 30.8302 11.9898C30.6457 12.201 30.5101 12.4503 30.4331 12.72C30.3562 12.9896 30.3397 13.273 30.3849 13.5497C30.4302 13.8265 30.536 14.0899 30.6948 14.321L31.3957 15.3339C31.1199 15.4614 30.8769 15.65 30.685 15.8855C30.4931 16.121 30.3574 16.3972 30.2883 16.693C30.2191 16.9888 30.2184 17.2965 30.286 17.5926C30.3537 17.8888 30.4879 18.1656 30.6787 18.402L33.3044 21.665L32.854 22.1044C32.5377 22.4155 32.2864 22.7861 32.1144 23.195C31.9424 23.6038 31.8532 24.0427 31.852 24.4863V26.3811C31.8512 26.8823 31.9638 27.3773 32.1815 27.8289C32.3991 28.2804 32.7162 28.6769 33.1088 28.9885V29.9787H32.7426C32.5969 29.9787 32.4572 30.0366 32.3542 30.1396C32.2512 30.2426 32.1933 30.3823 32.1933 30.528V36.9506C32.1933 37.0963 32.2512 37.236 32.3542 37.3391C32.4572 37.4421 32.5969 37.4999 32.7426 37.4999H40.9509C41.0966 37.4999 41.2363 37.4421 41.3393 37.3391C41.4423 37.236 41.5002 37.0963 41.5002 36.9506V32.6835C41.5002 32.5379 41.4423 32.3981 41.3393 32.2951C41.2363 32.1921 41.0966 32.1342 40.9509 32.1342H40.2858V30.5295C40.2858 30.3838 40.228 30.2441 40.1249 30.1411C40.0219 30.038 39.8822 29.9802 39.7365 29.9802H39.6691V27.0812L40.8974 24.7119ZM31.6945 12.6708C31.8201 12.5466 31.9835 12.4677 32.1589 12.4467L34.7861 16.2348L34.7128 16.2517C34.348 16.3445 34.0206 16.5476 33.7753 16.8332L31.5993 13.6962C31.4917 13.5415 31.4423 13.3538 31.4597 13.1662C31.4771 12.9785 31.5603 12.8031 31.6945 12.6708ZM31.5935 16.5168C31.7156 16.3906 31.8727 16.3038 32.0446 16.2678L33.3234 18.1149L33.4135 20.0456L31.5393 17.7128C31.4004 17.5415 31.3293 17.3252 31.3393 17.1049C31.3492 16.8846 31.4397 16.6756 31.5935 16.5175V16.5168ZM40.4016 36.4013H33.2927V33.2329H40.4016V36.4013ZM33.2927 32.1342V31.0788H39.1872V32.1342H33.2927ZM34.2089 29.9802V28.7109C34.2091 28.6197 34.1865 28.5299 34.1431 28.4497C34.0997 28.3695 34.037 28.3015 33.9606 28.2517C33.6504 28.0487 33.3956 27.7716 33.2195 27.4453C33.0434 27.1191 32.9515 26.754 32.9521 26.3832V24.4877C32.9529 24.1904 33.0126 23.8962 33.1279 23.6221C33.2432 23.348 33.4117 23.0996 33.6237 22.8911L34.4294 22.1066C34.4847 22.0525 34.5279 21.9872 34.5562 21.9151C34.5845 21.843 34.5972 21.7658 34.5935 21.6884L34.4243 18.0637C34.4186 17.9152 34.4578 17.7685 34.5367 17.6426C34.6157 17.5167 34.7307 17.4175 34.8668 17.3579C35.0029 17.2983 35.1538 17.2811 35.2998 17.3085C35.4458 17.3359 35.5802 17.4066 35.6855 17.5114L35.6972 17.5217L35.706 17.5327C35.7574 17.5885 35.8001 17.6517 35.8327 17.7202L35.8957 17.8542C36.239 18.5838 36.4699 19.3612 36.5805 20.1599C36.5986 20.2912 36.6635 20.4117 36.7634 20.4989C36.8633 20.5861 36.9914 20.6343 37.124 20.6345C37.1485 20.6342 37.173 20.6323 37.1972 20.6286C37.3415 20.6088 37.4721 20.5325 37.5601 20.4164C37.6482 20.3003 37.6865 20.154 37.6667 20.0097C37.5406 19.101 37.2773 18.2167 36.8859 17.3869L36.8229 17.2521C36.7427 17.0817 36.6367 16.9246 36.5087 16.7863L36.4978 16.7753L32.2336 10.6281C32.1354 10.4988 32.0926 10.3359 32.1146 10.175C32.1365 10.0142 32.2215 9.86865 32.3508 9.77046C32.4801 9.67226 32.643 9.62944 32.8039 9.65142C32.9647 9.6734 33.1103 9.75837 33.2084 9.88764L39.4296 17.447C40.0571 18.2108 40.4005 19.1684 40.4016 20.1569V22.2363C40.4011 22.9202 40.2366 23.5941 39.9218 24.2014L38.6313 26.6916C38.5904 26.7698 38.5691 26.8568 38.569 26.945V29.978L34.2089 29.9802Z" fill="#423891"/>
<path d="M34.9858 35.3662H35.7336C35.8793 35.3662 36.0191 35.3083 36.1221 35.2053C36.2251 35.1023 36.283 34.9626 36.283 34.8169C36.283 34.6712 36.2251 34.5315 36.1221 34.4285C36.0191 34.3255 35.8793 34.2676 35.7336 34.2676H34.9858C34.8402 34.2676 34.7004 34.3255 34.5974 34.4285C34.4944 34.5315 34.4365 34.6712 34.4365 34.8169C34.4365 34.9626 34.4944 35.1023 34.5974 35.2053C34.7004 35.3083 34.8402 35.3662 34.9858 35.3662Z" fill="#423891"/>
<path d="M14.103 15.3339L14.804 14.321C14.9628 14.0899 15.0686 13.8265 15.1138 13.5497C15.159 13.273 15.1426 12.9896 15.0656 12.72C14.9886 12.4503 14.853 12.201 14.6685 11.9898C14.484 11.7786 14.2552 11.6107 13.9983 11.4982L14.1675 11.2543C14.4185 10.8917 14.5197 10.446 14.4499 10.0105C14.3802 9.57497 14.1448 9.18324 13.7931 8.91713C13.4413 8.65101 13.0003 8.5311 12.5623 8.58243C12.1242 8.63375 11.7229 8.85236 11.4421 9.19257L5.22241 16.7519C4.43311 17.7129 4.00115 18.9177 4 20.1613L4 22.2407C4.00095 23.1007 4.20763 23.948 4.60278 24.7119L5.83105 27.0812V29.9802H5.76221C5.61652 29.9802 5.4768 30.038 5.37378 30.1411C5.27076 30.2441 5.21289 30.3838 5.21289 30.5295V32.1342H4.54932C4.40363 32.1342 4.26391 32.1921 4.16089 32.2951C4.05787 32.3981 4 32.5379 4 32.6835V36.9506C4 37.0963 4.05787 37.236 4.16089 37.3391C4.26391 37.4421 4.40363 37.4999 4.54932 37.4999H12.7568C12.9025 37.4999 13.0422 37.4421 13.1453 37.3391C13.2483 37.236 13.3062 37.0963 13.3062 36.9506V30.5295C13.3062 30.3838 13.2483 30.2441 13.1453 30.1411C13.0422 30.038 12.9025 29.9802 12.7568 29.9802H12.3906V28.9899C12.7833 28.6783 13.1003 28.2819 13.318 27.8303C13.5357 27.3788 13.6483 26.8838 13.6475 26.3825V24.4877C13.6459 24.044 13.5562 23.605 13.3837 23.1961C13.2112 22.7873 12.9593 22.4167 12.6426 22.1059L12.1921 21.6665L14.8179 18.4035C15.0086 18.1671 15.1429 17.8902 15.2105 17.5941C15.2782 17.2979 15.2774 16.9902 15.2083 16.6944C15.1391 16.3986 15.0035 16.1225 14.8116 15.887C14.6197 15.6515 14.3766 15.4628 14.1008 15.3354L14.103 15.3339ZM13.8057 12.6708C13.9399 12.8031 14.0231 12.9785 14.0405 13.1662C14.0579 13.3538 14.0085 13.5415 13.9009 13.6962L11.7278 16.8347C11.4825 16.549 11.1551 16.346 10.7903 16.2531L10.717 16.2363L13.3413 12.4511C13.5162 12.4709 13.6795 12.5482 13.8057 12.6708ZM6.31299 31.0788H12.2075V32.1342H6.31299V31.0788ZM12.2075 36.4013H5.09863V33.2329H12.2075V36.4013ZM12.5481 26.3825C12.5487 26.7533 12.4568 27.1183 12.2807 27.4446C12.1046 27.7708 11.8498 28.048 11.5396 28.2509C11.4631 28.3008 11.4003 28.369 11.3569 28.4493C11.3136 28.5297 11.291 28.6196 11.2913 28.7109V29.9809H6.92969V26.9472C6.92968 26.859 6.90832 26.772 6.86743 26.6938L5.5769 24.2036C5.263 23.5969 5.099 22.9238 5.09863 22.2407V20.1613C5.09968 19.1728 5.44313 18.2152 6.07056 17.4514L12.2917 9.88764C12.3917 9.76455 12.5356 9.6851 12.693 9.66603C12.8504 9.64697 13.009 9.68979 13.1355 9.78545C13.2619 9.88112 13.3463 10.0222 13.3708 10.1788C13.3952 10.3355 13.3579 10.4955 13.2666 10.6252L9.00317 16.7724L8.99145 16.7834C8.8635 16.9217 8.75753 17.0788 8.67725 17.2492L8.61426 17.3869C8.22337 18.2167 7.96062 19.1011 7.83496 20.0097C7.81515 20.154 7.85349 20.3003 7.94153 20.4164C8.02958 20.5325 8.16012 20.6088 8.30444 20.6286C8.32869 20.6323 8.35316 20.6342 8.37769 20.6345C8.5103 20.6343 8.63837 20.5861 8.73826 20.4989C8.83815 20.4117 8.90311 20.2912 8.92114 20.1599C9.03167 19.3611 9.26256 18.5838 9.60596 17.8542L9.66894 17.7202C9.7016 17.6517 9.74431 17.5885 9.79565 17.5327L9.80444 17.5217L9.81616 17.5114C9.92118 17.4069 10.0552 17.3363 10.2008 17.3088C10.3463 17.2813 10.4968 17.2982 10.6327 17.3572C10.7686 17.4163 10.8837 17.5147 10.963 17.6399C11.0422 17.7651 11.0821 17.9112 11.0774 18.0593L10.9082 21.6884C10.9045 21.7658 10.9172 21.843 10.9455 21.9151C10.9737 21.9872 11.017 22.0525 11.0723 22.1066L11.8779 22.8911C12.0899 23.0996 12.2584 23.348 12.3737 23.6221C12.489 23.8962 12.5488 24.1904 12.5496 24.4877L12.5481 26.3825ZM13.9646 17.7128L12.0867 20.0463L12.1768 18.1157L13.4556 16.2685C13.6275 16.3046 13.7846 16.3913 13.9067 16.5175C14.061 16.6751 14.1522 16.8839 14.1628 17.1042C14.1735 17.3245 14.103 17.5411 13.9646 17.7128Z" fill="#423891"/>
<path d="M9.7666 35.3662H10.5144C10.6601 35.3662 10.7998 35.3083 10.9028 35.2053C11.0058 35.1023 11.0637 34.9626 11.0637 34.8169C11.0637 34.6712 11.0058 34.5315 10.9028 34.4285C10.7998 34.3255 10.6601 34.2676 10.5144 34.2676H9.7666C9.62091 34.2676 9.48119 34.3255 9.37818 34.4285C9.27516 34.5315 9.21729 34.6712 9.21729 34.8169C9.21729 34.9626 9.27516 35.1023 9.37818 35.2053C9.48119 35.3083 9.62091 35.3662 9.7666 35.3662Z" fill="#423891"/>
<path d="M22.4263 9.31299C22.3753 9.36403 22.3147 9.40453 22.248 9.43216C22.1813 9.45978 22.1099 9.474 22.0377 9.474C21.9656 9.474 21.8941 9.45978 21.8274 9.43216C21.7608 9.40453 21.7002 9.36403 21.6492 9.31299L20.5806 8.24438L20.04 8.78272L21.7664 10.509C21.8378 10.5804 21.9346 10.6204 22.0355 10.6204C22.1365 10.6204 22.2333 10.5804 22.3047 10.509L25.4541 7.35962L24.9158 6.82129L22.4263 9.31299Z" fill="#423891"/>
<path d="M29.2808 2.52083L22.9504 0.0379162C22.8214 -0.0126387 22.6781 -0.0126387 22.5491 0.0379162L16.2188 2.52083C16.1158 2.56133 16.0275 2.63191 15.9653 2.72337C15.9031 2.81483 15.8699 2.92292 15.8701 3.03352V7.37971C15.8703 9.4944 16.5076 11.56 17.699 13.3071C18.8904 15.0543 20.5805 16.4019 22.5491 17.1744C22.678 17.2252 22.8215 17.2252 22.9504 17.1744C24.919 16.4019 26.6091 15.0543 27.8005 13.3071C28.9919 11.56 29.6292 9.4944 29.6294 7.37971V3.03279C29.6294 2.92231 29.5962 2.81439 29.534 2.72307C29.4718 2.63176 29.3836 2.56128 29.2808 2.52083ZM26.6228 7.74592L23.0837 11.285C22.9464 11.4225 22.7833 11.5316 22.6038 11.606C22.4243 11.6804 22.2318 11.7187 22.0375 11.7187C21.8431 11.7187 21.6507 11.6804 21.4712 11.606C21.2916 11.5316 21.1286 11.4225 20.9912 11.285L18.8767 9.17048C18.8257 9.11947 18.7852 9.0589 18.7575 8.99223C18.7299 8.92556 18.7157 8.8541 18.7157 8.78193C18.7157 8.70977 18.7299 8.63831 18.7575 8.57164C18.7852 8.50497 18.8257 8.4444 18.8767 8.39338L20.1951 7.07869C20.246 7.02766 20.3065 6.98719 20.3731 6.95957C20.4397 6.93195 20.5111 6.91773 20.5833 6.91773C20.6554 6.91773 20.7268 6.93195 20.7934 6.95957C20.86 6.98719 20.9205 7.02766 20.9714 7.07869L22.04 8.14729L24.5303 5.65706C24.5812 5.60603 24.6417 5.56555 24.7083 5.53794C24.775 5.51032 24.8463 5.4961 24.9185 5.4961C24.9906 5.4961 25.062 5.51032 25.1286 5.53794C25.1952 5.56555 25.2557 5.60603 25.3066 5.65706L26.625 6.97542C26.676 7.02643 26.7165 7.087 26.7442 7.15367C26.7718 7.22034 26.786 7.2918 26.786 7.36397C26.786 7.43613 26.7718 7.50759 26.7442 7.57426C26.7165 7.64093 26.676 7.7015 26.625 7.75251L26.6228 7.74592Z" fill="#423891"/>
</g>
<defs>
<filter id="filter0_d_487_408" x="0" y="0" width="45.5" height="45.5" filterUnits="userSpaceOnUse" color-interpolation-filters="sRGB">
<feFlood flood-opacity="0" result="BackgroundImageFix"/>
<feColorMatrix in="SourceAlpha" type="matrix" values="0 0 0 0 0 0 0 0 0 0 0 0 0 0 0 0 0 0 127 0" result="hardAlpha"/>
<feOffset dy="4"/>
<feGaussianBlur stdDeviation="2"/>
<feComposite in2="hardAlpha" operator="out"/>
<feColorMatrix type="matrix" values="0 0 0 0 0 0 0 0 0 0 0 0 0 0 0 0 0 0 0.25 0"/>
<feBlend mode="normal" in2="BackgroundImageFix" result="effect1_dropShadow_487_408"/>
<feBlend mode="normal" in="SourceGraphic" in2="effect1_dropShadow_487_408" result="shape"/>
</filter>
<clipPath id="clip0_487_408">
<rect width="37.5" height="37.5" fill="white" transform="translate(4)"/>
</clipPath>
</defs>
</svg>
