<svg width="40" height="40" viewBox="0 0 40 40" fill="none" xmlns="http://www.w3.org/2000/svg">
<g clip-path="url(#clip0_511_16)">
<path d="M33.8617 4.71974L20.1898 0.0322437C20.0669 -0.0107479 19.9331 -0.0107479 19.8102 0.0322437L6.13828 4.71974C6.02272 4.7592 5.92239 4.83382 5.85136 4.93315C5.78033 5.03248 5.74216 5.15154 5.74219 5.27365V20.2736C5.74239 24.613 7.09838 28.8439 9.62064 32.3749C12.1429 35.906 15.7054 38.5607 19.8102 39.9682C19.9331 40.0109 20.0669 40.0109 20.1898 39.9682C24.2946 38.5607 27.8571 35.906 30.3794 32.3749C32.9016 28.8439 34.2576 24.613 34.2578 20.2736V5.27365C34.2578 5.15154 34.2197 5.03248 34.1486 4.93315C34.0776 4.83382 33.9773 4.7592 33.8617 4.71974ZM33.0859 20.2736C33.0858 24.3345 31.8275 28.2955 29.4841 31.612C27.1408 34.9284 23.8275 37.4375 20 38.794C16.1725 37.4375 12.8592 34.9284 10.5159 31.612C8.17253 28.2955 6.91425 24.3345 6.91406 20.2736V5.6924L20 1.20568L33.0859 5.6924V20.2736Z" fill="white"/>
<path d="M19.8102 2.75724L8.87266 6.50724C8.75709 6.54694 8.65681 6.62173 8.5858 6.72117C8.51479 6.82061 8.4766 6.93973 8.47656 7.06192V20.3025C8.47686 23.9247 9.55025 27.4657 11.5612 30.4783C13.5722 33.491 16.4307 35.8404 19.7758 37.2299C19.9194 37.2893 20.0806 37.2893 20.2242 37.2299C23.5693 35.8404 26.4278 33.491 28.4388 30.4783C30.4497 27.4657 31.5231 23.9247 31.5234 20.3025V7.06192C31.5234 6.93973 31.4852 6.82061 31.4142 6.72117C31.3432 6.62173 31.2429 6.54694 31.1273 6.50724L20.1898 2.75724C20.0668 2.71504 19.9332 2.71504 19.8102 2.75724ZM30.3516 7.47989V20.3025C30.3587 23.6532 29.3814 26.9321 27.5411 29.7322C25.7008 32.5322 23.0786 34.73 20 36.0525C16.9214 34.73 14.2992 32.5322 12.4589 29.7322C10.6186 26.9321 9.64131 23.6532 9.64844 20.3025V7.47989L20 3.93146L30.3516 7.47989Z" fill="white"/>
<path d="M11.6016 20C11.6016 21.6611 12.0941 23.2848 13.017 24.6659C13.9398 26.047 15.2514 27.1235 16.7861 27.7591C18.3207 28.3948 20.0093 28.5611 21.6385 28.2371C23.2676 27.913 24.764 27.1131 25.9386 25.9386C27.1131 24.764 27.913 23.2676 28.2371 21.6385C28.5611 20.0093 28.3948 18.3207 27.7591 16.7861C27.1235 15.2514 26.047 13.9398 24.6659 13.017C23.2848 12.0941 21.6611 11.6016 20 11.6016C17.7734 11.604 15.6386 12.4897 14.0641 14.0641C12.4897 15.6386 11.604 17.7734 11.6016 20ZM27.2266 20C27.2266 21.4293 26.8027 22.8265 26.0087 24.0149C25.2146 25.2033 24.086 26.1295 22.7655 26.6765C21.445 27.2234 19.992 27.3665 18.5902 27.0877C17.1884 26.8089 15.9007 26.1206 14.89 25.11C13.8794 24.0993 13.1911 22.8116 12.9123 21.4098C12.6335 20.008 12.7766 18.555 13.3235 17.2345C13.8705 15.914 14.7967 14.7854 15.9851 13.9913C17.1735 13.1973 18.5707 12.7734 20 12.7734C21.9159 12.7757 23.7527 13.5378 25.1074 14.8926C26.4622 16.2473 27.2243 18.0841 27.2266 20Z" fill="white"/>
<path d="M17.6048 18.3061C17.5504 18.2517 17.4858 18.2085 17.4147 18.179C17.3435 18.1495 17.2673 18.1344 17.1903 18.1344C17.1134 18.1344 17.0371 18.1495 16.966 18.179C16.8949 18.2085 16.8303 18.2517 16.7759 18.3061L15.072 20.0092C14.9624 20.1193 14.9009 20.2684 14.9009 20.4237C14.9009 20.579 14.9624 20.7281 15.072 20.8382L17.8126 23.5772C18.1486 23.9128 18.6041 24.1013 19.079 24.1013C19.5539 24.1013 20.0094 23.9128 20.3454 23.5772L24.9298 18.9928C25.0394 18.8827 25.1009 18.7337 25.1009 18.5784C25.1009 18.4231 25.0394 18.274 24.9298 18.1639L23.2259 16.4608C23.1715 16.4064 23.1069 16.3632 23.0358 16.3337C22.9646 16.3042 22.8884 16.2891 22.8114 16.2891C22.7345 16.2891 22.6582 16.3042 22.5871 16.3337C22.516 16.3632 22.4514 16.4064 22.397 16.4608L19.079 19.7788L17.6048 18.3061ZM22.8126 17.7038L23.6876 18.578L19.5173 22.7483C19.4013 22.8643 19.2439 22.9295 19.0798 22.9295C18.9157 22.9295 18.7583 22.8643 18.6423 22.7483L16.3173 20.4233L17.1876 19.5491L18.661 21.0217C18.7153 21.0763 18.7799 21.1195 18.8509 21.149C18.922 21.1786 18.9982 21.1938 19.0751 21.1938C19.1521 21.1938 19.2282 21.1786 19.2993 21.149C19.3703 21.1195 19.4349 21.0763 19.4892 21.0217L22.8126 17.7038Z" fill="white"/>
</g>
<defs>
<clipPath id="clip0_511_16">
<rect width="40" height="40" fill="white"/>
</clipPath>
</defs>
</svg>
